<?xml version="1.0" standalone="no"?>
<!DOCTYPE svg PUBLIC "-//W3C//DTD SVG 1.1//EN" "http://www.w3.org/Graphics/SVG/1.1/DTD/svg11.dtd" >
<!--
2013-9-30: Created.
-->
<svg>
<metadata>
Created by iconfont
</metadata>
<defs>

<font id="iconfont" horiz-adv-x="1024" >
  <font-face
    font-family="iconfont"
    font-weight="500"
    font-stretch="normal"
    units-per-em="1024"
    ascent="896"
    descent="-128"
  />
    <missing-glyph />
    
    <glyph glyph-name="x" unicode="x" horiz-adv-x="1001"
d="M281 543q-27 -1 -53 -1h-83q-18 0 -36.5 -6t-32.5 -18.5t-23 -32t-9 -45.5v-76h912v41q0 16 -0.5 30t-0.5 18q0 13 -5 29t-17 29.5t-31.5 22.5t-49.5 9h-133v-97h-438v97zM955 310v-52q0 -23 0.5 -52t0.5 -58t-10.5 -47.5t-26 -30t-33 -16t-31.5 -4.5q-14 -1 -29.5 -0.5
t-29.5 0.5h-32l-45 128h-439l-44 -128h-29h-34q-20 0 -45 1q-25 0 -41 9.5t-25.5 23t-13.5 29.5t-4 30v167h911zM163 247q-12 0 -21 -8.5t-9 -21.5t9 -21.5t21 -8.5q13 0 22 8.5t9 21.5t-9 21.5t-22 8.5zM316 123q-8 -26 -14 -48q-5 -19 -10.5 -37t-7.5 -25t-3 -15t1 -14.5
t9.5 -10.5t21.5 -4h37h67h81h80h64h36q23 0 34 12t2 38q-5 13 -9.5 30.5t-9.5 34.5q-5 19 -11 39h-368zM336 498v228q0 11 2.5 23t10 21.5t20.5 15.5t34 6h188q31 0 51.5 -14.5t20.5 -52.5v-227h-327z" />
    

    
    <glyph glyph-name="xiangji1" unicode="&#58953;" d="M677.376 271.168c0-96.832-75.264-175.36-168-175.36-92.8 0-168 78.528-168 175.36s75.2 175.36 168 175.36S677.376 368 677.376 271.168L677.376 271.168zM934.144 739.456L310.016 739.456c0 0.32 0 0.64 0 0.96L310.016 778.752c0 24.128-19.008 43.84-42.24 43.84L133.12 822.592c-23.232 0-42.24-19.712-42.24-43.84l0-38.336c0-0.32 0-0.64 0-0.96L84.544 739.456C38.08 739.456 0 699.968 0 651.712l0-618.56c0-48.256 38.016-87.744 84.544-87.744l849.6 0c46.528 0 84.544 39.488 84.544 87.744L1018.688 651.712C1018.688 699.968 980.672 739.456 934.144 739.456L934.144 739.456zM303.36 638.784c20.992 0 38.016-17.792 38.016-39.68s-17.024-39.68-38.016-39.68-38.016 17.792-38.016 39.68C265.344 621.056 282.368 638.784 303.36 638.784L303.36 638.784zM509.376 23.488000000000056c-131.072 0-237.312 110.912-237.312 247.68s106.24 247.68 237.312 247.68 237.312-110.912 237.312-247.68S640.448 23.488000000000056 509.376 23.488000000000056L509.376 23.488000000000056zM918.016 566.4639999999999l-239.744 0c-23.232 0-42.24 15.232-42.24 33.856s19.008 33.856 42.24 33.856l239.744 0c23.232 0 42.24-15.232 42.24-33.856C960.32 581.696 941.312 566.4639999999999 918.016 566.4639999999999L918.016 566.4639999999999z"  horiz-adv-x="1024" />

    
    <glyph glyph-name="yjt" unicode="&#58882;" d="M986.252781 400.649192L88.124601 400.649192 479.956412 793.735895 461.395947 812.111404 37.746196 387.057639 39.991421 384.837064 37.746196 382.61137299999996 461.395947-42.40964599999995 479.956412-24.062788999999952 88.153254 369.02288999999996 986.252781 369.02288999999996Z"  horiz-adv-x="1024" />

    
    <glyph glyph-name="jiahao" unicode="&#58909;" d="M812.679424 836.794573L208.932079 836.794573c-83.363045 0-150.939906-67.578118-150.939906-150.935618l0-603.724051c0-83.3575 67.576861-150.929478 150.939906-150.929478l603.747345 0c83.363045 0 150.939906 67.571978 150.939906 150.929478L963.61933 685.858956C963.61933 769.216455 896.042469 836.794573 812.679424 836.794573zM780.10008 326.33260199999995l-215.466164 0-0.002047-196.173938c0-30.420847-24.658621-55.095829-55.086885-55.095829-30.428264 0.01228-55.092001 24.674982-55.086885 55.095829L454.458101 326.33260199999995 238.979657 326.33260199999995c-31.840485 0-57.666748 25.825179-57.666748 57.667398-0.005117 31.854499 25.816029 57.673537 57.672888 57.673537l215.473327-0.005117L454.459124 640.272711c-0.005117 30.420847 24.658621 55.089689 55.086885 55.084573 30.428264 0 55.080745-24.657586 55.092001-55.084573l-0.002047-198.605314 215.46514-0.005117c31.845602 0.01228 57.661631-25.807782 57.666748-57.662281C837.767852 352.157781 811.956939 326.33260199999995 780.10008 326.33260199999995z"  horiz-adv-x="1024" />

    
    <glyph glyph-name="mima" unicode="&#58881;" d="M508.095064 752.422977c125.133975 0 223.151359-96.508008 223.151359-226.467895l79.942727 0c0 154.519236-135.972834 306.410622-303.094086 306.410622-167.123298 0-303.071573-151.891386-303.071573-306.410622l79.94068 0C284.96417 655.91497 382.959042 752.422977 508.095064 752.422977zM778.475074 475.813079L245.00918 475.813079c-44.148499 0-80.734766-36.509519-80.734766-80.654948l0-379.415332c0-44.115754 36.58729-79.211063 80.734766-79.211063l533.488407 0c44.1178 0 80.600713 35.096333 80.600713 79.241762L859.098299 395.157107C859.098299 439.302537 822.615387 475.813079 778.475074 475.813079z"  horiz-adv-x="1024" />

    
    <glyph glyph-name="svg02" unicode="&#58894;" d="M286.624 39.23199999999997L392.992-70.52800000000002 852.704 383.93600000000004 385.984 840.672 272.64 728.672 639.968 388.544Z"  horiz-adv-x="1024" />

    
    <glyph glyph-name="qqkongjian" unicode="&#58897;" d="M307.5072 220.26239999999996c22.528 25.6 312.832 189.7472 312.832 189.7472l-378.9824 51.2 506.88 6.0416c0 0 18.0224-15.0528 0-36.1472-18.0224-21.0944-287.232-206.336-287.232-206.336l306.176-24.576-9.3184 54.3744L1003.52 494.592l-339.6608 49.3568L512 852.1728l-151.8592-308.224L20.48 494.592l245.76-239.9232-57.9584-338.8416L512 75.77599999999995l303.7184-159.9488-47.616 278.2208-460.6976-20.3776C307.5072 173.56799999999998 284.8768 194.66240000000005 307.5072 220.26239999999996zM767.0784 200.192l1.024-6.2464 49.2544 2.2528L767.0784 200.192z"  horiz-adv-x="1024" />

    
    <glyph glyph-name="down" unicode="&#58917;" d="M1007.616 669.696c-15.36 15.36-40.96 15.36-57.344 0L512 188.41600000000005l-438.272 481.28c-15.36 15.36-40.96 15.36-57.344 0-15.36-15.36-15.36-40.96 0-57.344l456.704-500.736c2.048-5.12 5.12-9.216 8.192-13.312 8.192-8.192 19.456-12.288 29.696-11.264 11.264 0 22.528 3.072 30.72 11.264 4.096 4.096 7.168 8.192 9.216 13.312l455.68 500.736C1022.976 627.712 1022.976 653.312 1007.616 669.696z"  horiz-adv-x="1024" />

    
    <glyph glyph-name="remen" unicode="&#59159;" d="M805.892005 301.54301c-100.646258 218.026642-35.70213 287.936875-35.034934 288.693098 1.107217 1.107217 1.269923 2.910283 0.411369 4.304026-0.917906 1.329275-2.65855 1.867534-4.176113 1.235131-1.451048-0.568958-141.534504-58.928111-123.901915-188.302667-38.457894 34.530444-217.940684 211.727169-108.11537 420.1245 0.666172 1.2689 0.473791 2.849908-0.538259 3.926426-0.949628 1.106194-2.563382 1.453095-3.829212 0.854461-2.405793-0.953721-58.392922-24.908296-103.020328-85.387739-41.174772-55.698556-79.498612-154.220431-27.910677-306.663378 18.766412-71.717392-16.613376-129.882116-35.606962-154.567331 4.687766 17.024745 10.5421 45.854351 9.559727 78.926584-1.51347 48.421826-18.9854 115.324562-93.616144 158.617577-1.140986 0.662079-2.628874 0.602727-3.735068-0.222057-1.171686-0.854461-1.644453-2.214435-1.299599-3.606131 0.222057-1.264806 28.17162-128.651079-20.822235-187.577143-42.285059-50.889017-83.711564-139.375328-61.304228-221.378993 18.797112-68.547189 77.507258-120.890324 174.512592-155.488307 24.87248-7.656377 48.703235-13.476943 75.007321-18.387789 1.709945-0.379647 3.38919 0.663102 3.922333 2.27788 0.474814 1.769296-0.316202 3.573385-1.89721 4.27435-49.847292 21.60711-101.213169 66.585511-63.047941 157.984151 36.367279 78.773088 29.881564 119.369691 22.565948 136.788409 18.802228-10.571776 56.117089-38.077224 46.811142-86.370113-0.251733-1.424442 0.38067-2.910283 1.6158-3.603061 1.2689-0.759293 2.819209-0.665149 3.922333 0.252757 1.204431 0.917906 113.430422 93.266174 62.410422 206.434629 25.13547-14.526855 91.819219-65.225537 52.477188-181.591825-13.106506-50.071396 22.565948-86.023212 24.051789-87.570451 1.201361-1.140986 2.974751-1.363044 4.363378-0.414439 1.333368 0.825808 1.867534 2.568499 1.2689 4.111644-1.171686 3.13541-27.728528 74.755588 29.941939 114.314559-3.069919-18.391882-7.91425-63.863517 12.754488-88.677669 18.539238-22.342868 36.456307-58.933227 30.977525-94.688569-3.828188-25.134447-18.706037-46.332235-44.340881-62.949704-1.457188-1.038656-1.989307-2.816139-1.230014-4.430916 0.697895-1.610684 2.564405-2.315742 4.209882-1.803066 63.328327 20.9788 146.377812 62.564941 182.588525 141.939733C842.670653 151.50687800000003 839.284533 221.63507500000003 805.892005 301.54301L805.892005 301.54301zM805.892005 301.54301"  horiz-adv-x="1024" />

    
    <glyph glyph-name="tuijian" unicode="&#58884;" d="M836.266667 896L186.835088 896C83.536842 896 0 812.463158 0 709.164912l0-650.329825C0-44.46315800000002 83.536842-128 186.835088-128l650.329825 0c102.4 0 186.835088 83.536842 186.835088 186.835088L1024 709.164912C1023.101754 812.463158 939.564912 896 836.266667 896zM184.140351 690.301754l168.870175 0 0 48.505263 73.65614 0 0-48.505263 185.936842 0 0 48.505263 73.65614 0 0-48.505263 168.870175 0 0-66.470175L686.259649 623.8315789999999l0-50.301754-73.65614 0 0 50.301754L426.666667 623.8315789999999l0-49.403509-73.65614 0 0 49.403509L184.140351 623.8315789999999 184.140351 690.301754zM374.568421 29.19298200000003l-70.063158 0L304.505263 283.39649099999997c-28.74386-25.150877-59.284211-48.505263-90.722807-69.164912l-45.810526 60.182456c85.333333 54.792982 152.701754 117.670175 202.105263 188.631579L195.817544 463.045614l0 66.470175 213.782456 0c8.084211 16.168421 15.270175 34.133333 23.354386 52.098246l70.961404-12.575439c-2.694737-8.982456-8.084211-22.45614-15.270175-39.522807l363.789474 0 0-66.470175L455.410526 463.045614c-22.45614-38.624561-49.403509-75.452632-80.842105-111.382456L374.568421 29.19298200000003zM856.02807 195.368421L695.242105 195.368421l0-95.214035c0-45.810526-22.45614-68.266667-68.266667-68.266667L534.45614 31.887718999999947l-21.557895 70.961404c35.929825-2.694737 64.673684-4.491228 85.333333-4.491228 16.168421 0 24.252632 8.084211 24.252632 23.354386L622.484211 195.368421 418.582456 195.368421l0 69.164912 203.901754 0 0 36.82807c19.761404 13.473684 46.708772 30.540351 80.842105 50.301754L472.477193 351.66315799999995l0 66.470175 335.045614 0 0-52.098246c-17.964912-14.37193-54.792982-42.217544-111.382456-83.536842l0-17.964912 160.785965 0L856.926316 195.368421z"  horiz-adv-x="1024" />

    
    <glyph glyph-name="touxiang" unicode="&#58886;" d="M943.232-5.504000000000019L943.232-5.504000000000019c0-23.168-18.048-41.856-40.32-41.856L122.24-47.360000000000014c-22.272 0-40.32 18.688-40.32 41.728l0 0.128 0 0c0 0 0 151.936 107.52 207.104 68.096 34.944 41.856 6.528 125.312 42.368 83.456 35.712 103.296 48.128 103.296 48.128l0.768 82.304c0 0-31.232 24.704-40.96 102.144-19.584-5.888-25.984 23.68-27.136 42.496-1.024 18.176-11.264 74.88 12.544 69.76-4.864 37.888-8.448 72.064-6.656 90.24 6.016 63.616 65.28 130.048 156.672 134.912 107.52-4.864 150.016-71.168 156.032-134.784 1.792-18.176-2.048-52.352-6.912-90.24 23.936 4.992 13.44-51.584 12.288-69.76-1.024-18.816-7.68-48.256-27.136-42.496-9.728-77.44-41.088-101.888-41.088-101.888l0.768-81.92c0 0 19.712-11.648 103.296-47.36 83.456-35.712 57.344-9.088 125.312-43.904C943.232 146.43200000000002 943.232-5.504000000000019 943.232-5.504000000000019L943.232-5.504000000000019 943.232-5.504000000000019zM943.232-5.504000000000019"  horiz-adv-x="1024" />

    
    <glyph glyph-name="xihuan" unicode="&#59079;" d="M954.924522 648.783304c-53.693217 53.158957-125.284174 79.961043-196.541217 79.961043-67.094261 0-133.854609-23.774609-184.943304-71.769043-21.481739-18.432-37.064348-32.790261-49.753043-32.790261-13.534609 0-25.466435 13.512348-49.619478 32.790261-54.650435 48.261565-121.366261 72.036174-187.503304 72.036174-70.455652 0-140.221217-27.002435-193.958957-80.228174-108.098783-106.985739-108.098783-289.903304 0-396.889043l389.988174-376.987826c7.791304-7.769043 25.399652-13.022609 43.119304-13.022609 14.959304 0 29.96313 3.762087 39.17913 12.955826l390.054957 377.054609C1062.956522 358.88 1062.956522 541.819826 954.924522 648.783304zM923.981913 283.927652 534.661565-92.414609c-1.313391-0.467478-4.318609-1.157565-8.97113-1.157565-6.299826 0-11.50887 1.313391-13.913043 2.203826L123.904 283.549217c-43.141565 42.674087-67.873391 103.468522-67.873391 166.800696 0 63.309913 24.731826 124.104348 67.895652 166.800696 43.831652 43.430957 101.576348 67.33913 162.615652 67.33913 57.433043 0 113.552696-21.615304 158.029913-60.883478l0.845913-0.734609 0.868174-0.712348c5.342609-4.229565 10.039652-8.192 14.291478-11.753739 18.765913-15.805217 36.507826-30.72 63.087304-30.72 28.249043 0 49.441391 18.253913 73.97287 39.401739l4.786087 4.140522 0.75687 0.645565 0.734609 0.667826c40.982261 38.489043 95.855304 59.703652 154.468174 59.703652 61.929739 0 122.145391-24.442435 165.197913-67.072 43.119304-42.696348 67.82887-103.468522 67.82887-166.800696S966.700522 326.223304 923.981913 283.927652zM290.637913 621.357913c-26.37913 3.049739-80.072348-6.722783-119.629913-46.302609-31.944348-31.855304-51.422609-78.046609-52.112696-123.592348-0.178087-12.310261 9.638957-22.416696 21.926957-22.617043 0.111304 0 0.222609 0 0.356174 0 12.132174 0 22.060522 9.750261 22.26087 21.926957 0.512 34.214957 15.11513 68.897391 39.045565 92.783304 28.961391 28.983652 69.142261 35.149913 82.988522 33.569391 12.132174-1.513739 23.262609 7.323826 24.687304 19.522783C311.585391 608.869565 302.83687 619.955478 290.637913 621.357913z"  horiz-adv-x="1036" />

    
    <glyph glyph-name="cuowu" unicode="&#58935;" d="M512-128C229.7-128 0 101.70000000000005 0 384 0 666.3 229.7 896 512 896c282.3 0 512-229.7 512-512C1024 101.70000000000005 794.3-128 512-128L512-128 512-128zM563.3 384l162.6 162.6c13.1 13.1 13.1 34.6 0 47.7l-3.5 3.5c-13.1 13.1-34.6 13.1-47.7 0L512 435.3 349.4 597.9c-13.1 13.1-34.6 13.1-47.7 0l-3.5-3.5c-13.1-13.1-13.1-34.6 0-47.7L460.7 384 298.1 221.39999999999998c-13.1-13.1-13.1-34.6 0-47.7l3.5-3.5c13.1-13.1 34.6-13.1 47.7 0L512 332.70000000000005l162.6-162.6c13.1-13.1 34.6-13.1 47.7 0l3.5 3.5c13.1 13.1 13.1 34.6 0 47.7L563.3 384z"  horiz-adv-x="1024" />

    
    <glyph glyph-name="duigou" unicode="&#58889;" d="M461.015563 110.466541c-12.298765 0-24.59878 4.697506-33.978791 14.091267L229.42903 322.136799c-18.750023 18.765023-18.750023 49.17006 0 67.935083 18.745023 18.763773 49.17006 18.763773 67.925083 0l163.66145-163.6727 418.05801 418.10676c18.765023 18.763773 49.18006 18.763773 67.943833 0 18.730023-18.741273 18.730023-49.15631 0-67.925083L494.956854 124.54405799999995C485.586843 115.16404699999998 473.276828 110.466541 461.015563 110.466541L461.015563 110.466541zM512.003125-128C229.68778-128 0 101.68277999999998 0 383.995625 0 666.31222 229.68778 896 512.003125 896c100.707623 0 198.193992-29.223786 281.875344-84.511353 16.855021-11.133764 21.485026-33.818791 10.366263-50.673812-11.132514-16.846271-33.818791-21.500026-50.673812-10.366263-71.698838 47.372558-155.23894 72.411338-241.567795 72.411338-241.997795 0-438.861786-196.86524-438.861786-438.863036 0-241.991545 196.86524-438.858036 438.861786-438.858036 241.992795 0 438.858036 196.86649 438.858036 438.858036 0 15.273769-0.776251 30.651287-2.338753 45.713806-2.080003 20.097525 12.528765 38.061296 32.61754 40.131299 20.068774 2.085003 38.061296-12.528765 40.131299-32.61254 1.816252-17.548771 2.730003-35.448793 2.730003-53.232565C1024 101.68277999999998 794.31722-128 512.003125-128L512.003125-128zM512.003125-128"  horiz-adv-x="1025" />

    
    <glyph glyph-name="dingwei" unicode="&#58930;" d="M510.615978 833.646883c-185.28903 0-335.492984-150.203954-335.492984-335.49196 0-185.288007 150.203954-335.512427 335.492984-335.512427 185.28596 0 335.496054 150.22442 335.496054 335.512427C846.113055 683.441906 695.902962 833.646883 510.615978 833.646883M510.615978 340.526883c-87.055728 0-157.629063 70.573335-157.629063 157.627017s70.573335 157.627017 157.629063 157.627017c87.059821 0 157.627017-70.573335 157.627017-157.627017S597.6758 340.526883 510.615978 340.526883M239.179916 301.028287L510.615978-62.955588000000034 776.097422 292.992263Z"  horiz-adv-x="1024" />

    
    <glyph glyph-name="huidaodingbu-copy" unicode="&#58887;" d="M511.07 686.37l-440.726-425.984h250.129l-2.185-348.831h384.478v349.923l256.683 3.277zM36.809 860.077h948.522v-139.846h-948.522v139.846z"  horiz-adv-x="1024" />

    
    <glyph glyph-name="jiantou-copy" unicode="&#58908;" d="M672 384l-384-384c-12.8-12.8-12.8-31.999 0-44.799s31.999-12.8 44.799 0l403.2 403.2c6.4 6.4 12.8 19.199 12.8 25.6s0 19.199-6.4 25.599l-409.6 409.6c-12.8 12.8-31.999 12.8-44.799 0s-12.8-31.999 0-44.799l384-390.399z"  horiz-adv-x="1024" />

    
    <glyph glyph-name="left" unicode="&#58895;" d="M816.144 800l-415.84-416 415.84-416-96.128-95.84L207.856 384 720.048 895.84 816.144 800z"  horiz-adv-x="1024" />

    
    <glyph glyph-name="zhanku" unicode="&#58922;" d="M854.333786 424.558741c-21.341051-11.82635-51.845809-17.703197-77.30976-20.611433 40.390919 34.326806 79.600943 73.439616 95.457072 122.643248 21.50785 66.750263 22.159696 128.627543 2.041496 194.715727-1.749854 5.744841-6.637164 9.986445-12.579503 10.916631-5.998621 1.041726-11.885701-1.575892-15.34243-6.470365-53.359278-75.997881-123.921357-124.469849-201.036689-138.798183 23.048949 46.37112 48.470945 98.713232 42.987047 153.429415-0.610914 6.049786-4.650927 11.212366-10.42749 13.228279-5.734608 2.006703-12.148691 0.538259-16.426111-3.811816-81.752955-83.253122-147.011238-100.82329-225.821165-102.177124-87.015819-1.499144-170.115446-41.618886-227.958852-110.088304-57.371662-67.87897-82.767052-155.432025-69.673849-240.216014 21.035082-136.421043 122.837676-238.518349 259.366166-260.09169 17.23043-2.720971 34.30941-4.051269 51.123354-4.051269 112.13287 0 212.755592 59.304687 270.252097 162.333202 6.553253 11.718903 17.314341 23.221888 29.519314 31.587416 55.511291 37.982056 95.665827 87.140663 119.311363 146.156778 3.263323 8.156774 5.665023 18.202571 7.761778 27.068496l1.62501 6.685259c1.541099 6.061043-0.693802 12.468986-5.665023 16.272615C866.566388 427.082214 859.804381 427.568285 854.333786 424.558741zM170.471556 320.49975700000005c13.176091-41.431621 94.16566-55.302537 94.16566-55.302537C197.032492 192.562946 170.471556 320.49975700000005 170.471556 320.49975700000005zM366.050953 265.19722c0 0 165.283394 19.10922 231.138264 76.05314C597.189218 341.25036 501.273704 122.53912600000001 366.050953 265.19722z"  horiz-adv-x="1024" />

    
    <glyph glyph-name="weixin" unicode="&#58991;" d="M670.312279 527.859087c10.262748 0 20.418049-0.739851 30.490462-1.861396-27.397004 127.574688-163.785437 222.358519-319.469351 222.358519-174.049209 0-316.622511-118.62382-316.622511-269.271016 0-86.984184 47.43336-158.367026 126.698737-213.764785l-31.667265-95.250459 110.687049 55.508277c39.605059-7.8283 71.381819-15.902194 110.905013-15.902194 9.936313 0 19.789738 0.492211 29.561299 1.257645-6.185892 21.1579-9.771561 43.327851-9.771561 66.347147C401.122104 415.612518 519.909653 527.859087 670.312279 527.859087zM500.06568 613.721726c23.839988 0 39.632689-15.683206 39.632689-39.496589 0-23.758124-15.793724-39.631665-39.632689-39.631665-23.729471 0-47.542853 15.874565-47.542853 39.631665C452.522826 598.037497 476.336208 613.721726 500.06568 613.721726zM278.473617 534.592449c-23.729471 0-47.679977 15.874565-47.679977 39.631665 0 23.813382 23.949482 39.496589 47.679977 39.496589s39.523195-15.683206 39.523195-39.496589C317.996812 550.4670140000001 302.204112 534.592449 278.473617 534.592449zM959.290145 281.086504c0 126.58822-126.671108 229.77545-268.943557 229.77545-150.647196 0-269.298645-103.18723-269.298645-229.77545 0-126.808231 118.651449-229.776473 269.298645-229.776473 31.531165 0 63.336577 7.9644 95.003842 15.902194l86.847061-47.569459-23.813382 79.128254C911.939673 146.45099700000003 959.290145 209.677057 959.290145 281.086504zM603.033922 320.71817c-15.765071 0-31.667265 15.6566-31.667265 31.667265 0 15.793724 15.902194 31.668289 31.667265 31.668289 23.949482 0 39.632689-15.875588 39.632689-31.668289C642.667634 336.37477 626.984428 320.71817 603.033922 320.71817zM777.193648 320.71817c-15.6566 0-31.448278 15.6566-31.448278 31.667265 0 15.793724 15.7927 31.668289 31.448278 31.668289 23.729471 0 39.631665-15.875588 39.631665-31.668289C816.825313 336.37477 800.923119 320.71817 777.193648 320.71817z"  horiz-adv-x="1024" />

    
    <glyph glyph-name="biaoqian1" unicode="&#58904;" d="M959.234701 330.050249L546.665224-82.90321200000005C517.738429-111.95800199999996 478.99871-127.95733499999994 437.869757-127.95733499999994 396.698139-127.95733499999994 358.086414-111.95800199999996 329.031625-82.90321200000005L44.926128 201.50093800000002C-14.975376 261.445108-14.975376 359.062374 44.926128 419.006543L457.495606 832.045334C496.235325 870.913048 559.336696 896.000003 618.299573 896.000003 628.240492 896.000003 637.968086 895.232035 647.311697 893.781429L841.095623 863.062709C914.479233 851.329864 978.561896 787.076541 990.124081 713.735597L1020.800136 519.909006C1032.447651 446.568061 1011.797845 382.65605700000003 959.234701 330.050249ZM725.345779 682.632893C678.201077 682.632893 640.016001 644.447817 640.016001 597.303114 640.016001 550.2010769999999 678.201077 511.973336 725.345779 511.973336 772.447817 511.973336 810.675558 550.2010769999999 810.675558 597.303114 810.675558 644.447817 772.447817 682.632893 725.345779 682.632893Z"  horiz-adv-x="1025" />

    
    <glyph glyph-name="icon" unicode="&#58890;" d="M258.551102 372.235049c5.145184-5.14109 12.253068-8.328689 20.094664-8.334829l217.625506-0.159636 0.165776-217.630622c0-7.840572 3.186576-14.944364 8.332782-20.088524 5.14109-5.142114 12.243859-8.332782 20.091594-8.334829 15.689331-0.016373 28.40084 12.695137 28.385491 28.384467l-0.160659 217.628576 217.625506-0.163729c15.688307-0.014326 28.399817 12.698207 28.385491 28.385491-0.005117 15.688307-12.736069 28.418236-28.424376 28.428469l-217.624483 0.165776-0.165776 217.620389c-0.010233 15.689331-12.735046 28.41619-28.424376 28.429493-15.689331 0.010233-28.40084-12.701277-28.389584-28.385491l0.164752-217.624483-217.624483 0.160659c-15.689331 0.010233-28.40084-12.701277-28.390607-28.385491C250.22139 384.479931 253.408989 377.37613899999997 258.551102 372.235049M920.518672 388.376681c0 108.99746-42.503023 211.475436-119.685893 288.551882C723.649909 754.008079 621.030717 796.45175 511.873622 796.45175c-109.154026 0-211.773218-42.443671-288.961204-119.523187-77.181847-77.076446-119.683846-179.549306-119.683846-288.551882 0-79.410608 22.861684-156.398026 66.124-222.647893 8.576329-13.129019 26.187429-16.824177 39.341007-8.268314 13.149485 8.568143 16.856923 26.152637 8.280594 39.287795-37.2156 56.988945-56.892755 123.254162-56.892755 191.628412 0 193.7047 157.815305 351.299995 351.793228 351.299995 193.986109 0 351.796298-157.595294 351.796298-351.299995 0-193.71084-157.819398-351.306134-351.796298-351.306134-64.238047 0-127.07621 17.440208-181.728948 50.441832-13.43601 8.112772-30.91101 3.807722-39.035038-9.607822-8.123005-13.416568-3.817955-30.867008 9.612938-38.977733 63.531965-38.355563 136.545886-58.626235 211.151048-58.626235 109.151979 0 211.772194 42.443671 288.955064 119.523187C878.011556 176.89919799999996 920.518672 279.374104 920.518672 388.376681"  horiz-adv-x="1024" />

    
    <glyph glyph-name="pinglun2" unicode="&#58956;" d="M837.805559 896L279.256949 896C125.622237 896 0 770.308339 0 616.7430509999999l0-186.194441c0-153.565288 125.622237-279.256949 279.256949-279.256949l46.54861 0L325.805559-128l319.140881 279.256949 192.859119 0c153.6 0 279.256949 125.691661 279.256949 279.256949L1117.062508 616.7430509999999C1117.09722 770.308339 991.405559 896 837.805559 896"  horiz-adv-x="1118" />

    
    <glyph glyph-name="zuanshi401" unicode="&#58902;" d="M946.938392 515.23288L818.282197 635.692393l-0.654916-0.698918-0.193405 0.180102 0.62524 0.719384-75.994812 66.101487-2.379187 2.009773-2.993171 0-32.911574 0-3.62762 0-29.277814 0-79.435167 0-79.432097 0-79.447447 0-79.447447 0-32.163537 0-0.73678 0L287.30703 704.004221l-3.419889 0-1.982144-2.035356-75.273381-66.110697 1.936095-2.204202-0.112564-0.101307-1.99954 2.146896L77.076958 515.2482299999999l-2.608407-2.873444 0-3.119037 0-23.847128 0-3.647063 2.691295-2.264577 222.645846-211.651444 0 0 206.531843-198.323904 5.659907-5.525853 0.010233 0.011256 0.001023-0.001023 5.672186 5.519714 0.007163 0.00614 0.339738 0.327458 205.895347 197.914582 222.73692 211.56958 0.153496 0.145309 0.00614 0.00614 2.709715 2.713808 0 0.149403 0 3.050476 0 23.847128 0 3.908006L946.938392 515.23288zM920.456251 517.443221l-3.13848 0-11.56029 13.614066L920.456251 517.443221zM868.437503 549.710113l26.77583-32.266891-68.547189 0-4.875031 74.332962-0.320295 13.242606L868.437503 549.710113zM667.5451 517.443221L532.233322 517.443221l100.827383 97.609085 1.826602-5.019317L667.5451 517.443221zM652.627343 609.170343l136.161123-91.727121L686.019871 517.443221 652.627343 609.170343zM670.927127 501.070322l-1.701758-6.517437-0.959861-3.518127-0.155543-0.415462-1.12359-2.910283L598.472955 298.948929l-0.947582-2.527566-77.331249 190.606129 0 14.042831L670.927127 501.070322zM683.14745 482.529037l0.852414 2.899026 1.108241 2.6432 0.511653 2.217505 2.854001 10.780531 118.93274 0-0.929162-6.197142-0.935302-3.628644L618.548176 305.857269 683.14745 482.529037zM733.587236 687.631322l28.600385-25.344225L707.814246 687.631322 733.587236 687.631322zM674.508699 685.062823l128.72578-60.524468 2.194992-33.456996 1.546216-64.065108L647.229402 632.591775 674.508699 685.062823zM591.439772 687.631322l65.896826 0-24.428366-46.572712-87.948051 46.572712L591.439772 687.631322zM622.561583 628.00941L511.999488 520.65845 401.215336 627.902986l110.791315 58.651818L622.561583 628.00941zM333.326133 517.443221l-98.126878 0 131.560338 88.629573L333.326133 517.443221zM390.130883 613.317803l101.3155-95.874581L355.377358 517.443221 390.130883 613.317803zM503.821225 501.070322l0-13.992689-78.368882-186.730868-70.864978 187.971116-1.11438 4.76349-1.583055 7.987928L503.821225 501.069299zM432.560228 687.631322l45.779649 0-88.064708-45.517683-23.677259 45.517683L432.560228 687.631322zM290.532491 687.631322l25.818015 0-51.895951-24.318872L290.532491 687.631322zM224.19155 624.339834l125.071553 60.521398 24.838711-52.148707L217.67309 525.53655 224.19155 624.339834zM330.801636 501.070322l2.162246-13.594623 0.340761-1.619894 0.340761-1.534959 1.006933-1.811252 65.558112-171.639149-177.977507 179.078585-5.650697 11.122315L330.801636 501.071346zM202.942597 599.892025l-2.490727-82.448804-63.752999 0L202.942597 599.892025zM126.064672 537.329131l-16.231683-19.885909-5.852288 0L126.064672 537.329131zM90.841449 489.130386l0 11.939937 14.68956 0 3.8814-14.06432 1.662873-2.814092 0.76748-1.151219 1.279133-2.302439 50.161447-59.010999L90.841449 489.130386zM130.902864 491.355053l-2.558265 5.372358-0.537236 4.342912 72.401983 0 4.030803-15.385409 0.468674-1.790786 0.76748-1.49198 64.280002-150.331867L130.902864 491.355053zM317.031005 278.617881l-80.730673 167.905104 180.015933-177.542602 70.461795-157.266813L317.031005 278.617881zM512.028141 96.10098800000003l-76.4246 177.732937 76.4246 189.736319 76.849272-189.756785L512.028141 96.10098800000003zM719.579197 297.00874l-8.498558-18.429745-175.315888-168.896688 68.99949 159.307286L783.802918 443.183937 719.579197 297.00874zM822.917774 482.002035l-0.004093 1.422396 0.511653 1.728364 0.448208 1.916653 3.312442 13.999852L904.964418 501.069299l-156.355047-180.204222L822.917774 482.002035zM933.156504 493.596094l0.013303-4.319375 0.005117-0.799202-5.628184-6.26775-75.745125-70.222341 73.034387 89.082898 8.320503 0L933.156504 493.596094z"  horiz-adv-x="1024" />

    
    <glyph glyph-name="jiantou-copy-copy-copy" unicode="&#58914;" d="M510.807 830.162c-247.485 0-448.185-200.635-448.185-448.187s200.702-448.187 448.185-448.187c247.552 0 448.187 200.632 448.187 448.187 0.001 247.552-200.634 448.187-448.187 448.187zM510.807-10.188999999999965c-216.601 0-392.164 175.563-392.164 392.164s175.529 392.232 392.164 392.232 392.198-175.631 392.198-392.232c-0.003-216.6-175.599-392.164-392.198-392.164zM637.839 621.054c-10.923 10.996-28.641 10.996-39.567 0l-214.462-214.432c-6.725-6.792-8.824-15.966-7.285-24.647-1.54-8.685 0.599-17.927 7.284-24.65l214.462-214.499c10.96-10.925 28.679-10.925 39.567 0 10.993 10.923 10.993 28.71 0 39.636l-199.443 199.514 199.443 199.443c10.994 10.993 10.994 28.71 0 39.636z"  horiz-adv-x="1024" />

    
    <glyph glyph-name="mingpianjia" unicode="&#59108;" d="M886.624 6.912000000000035L137.376 6.912000000000035c-60.032 0-108.832 48.832-108.832 108.864L28.544 652.192c0 60.032 48.8 108.864 108.832 108.864l749.248 0c60.032 0 108.832-48.832 108.832-108.864l0-536.416C995.456 55.775999999999954 946.656 6.912000000000035 886.624 6.912000000000035zM137.376 713.088c-33.568 0-60.832-27.328-60.832-60.864l0-536.416c0-33.568 27.296-60.864 60.832-60.864l749.248 0c33.568 0 60.832 27.328 60.832 60.864L947.456 652.192c0 33.568-27.296 60.864-60.832 60.864L137.376 713.056zM308.032 336.15999999999997c-64.096 0-116.256 52.16-116.256 116.256s52.16 116.256 116.256 116.256 116.256-52.16 116.256-116.256S372.128 336.15999999999997 308.032 336.15999999999997zM308.032 520.672c-37.632 0-68.256-30.624-68.256-68.256s30.624-68.256 68.256-68.256 68.256 30.624 68.256 68.256S345.664 520.672 308.032 520.672zM825.056 520.672L533.76 520.672c-13.248 0-24 10.752-24 24s10.752 24 24 24l291.328 0c13.248 0 24-10.752 24-24S838.304 520.672 825.056 520.672zM825.056 326.11199999999997L533.76 326.11199999999997c-13.248 0-24 10.752-24 24s10.752 24 24 24l291.328 0c13.248 0 24-10.752 24-24S838.304 326.11199999999997 825.056 326.11199999999997zM825.056 139.32799999999997L193.568 139.32799999999997c-13.248 0-24 10.752-24 24s10.752 24 24 24l631.488 0c13.248 0 24-10.752 24-24S838.304 139.32799999999997 825.056 139.32799999999997z"  horiz-adv-x="1024" />

    
    <glyph glyph-name="cuowu1" unicode="&#58921;" d="M813.568 685.568c-166.4 166.4-436.736 166.4-603.648 0s-166.4-436.736 0-603.648 436.736-166.4 603.648 0S980.48 519.168 813.568 685.568zM666.112 172.03200000000004L512 325.63199999999995l-154.112-154.112-58.368 58.368L453.632 384 300.032 538.1120000000001l58.368 58.368L512 442.368l154.112 154.112 58.368-58.368L570.368 384l154.112-154.112L666.112 172.03200000000004z"  horiz-adv-x="1024" />

    
    <glyph glyph-name="chevron-copy-copy-copy-copy-copy" unicode="&#59021;" d="M531.714 153.149l421.134 421.103c12.223 12.256 12.223 32.062 0 44.317-12.255 12.255-32.093 12.255-44.348 0l-400.575-400.544-393.962 393.93c-11.879 11.91-31.154 11.91-43.032 0-11.942-11.878-11.941-31.154 0-43.061l409.1-409.131c1.598-1.598 3.542-2.382 5.391-3.543 0.721-0.971 1.097-2.163 2.005-3.072 12.223-12.223 32.063-12.223 44.286 0z"  horiz-adv-x="1024" />

    
    <glyph glyph-name="yinle" unicode="&#58974;" d="M885.242238 830.24746L341.900416 829.503517c-32.105209-5.63944-52.894697-35.056424-52.894697-67.499323l0-102.688777-0.846274 0 0-481.626225c-24.671912 25.441439-49.909713 35.685757-82.035388 35.685757-77.355809 0-140.274814-62.60485-140.274814-139.578965 0-76.876901 62.919005-136.042419 140.274814-136.042419 73.722048 0 129.923048 52.081169 136.061862 132.436288l2.340301 0L344.526219 522.207735l558.824445-0.512676 0-282.112216c-22.952758 25.440415-47.376007 30.103622-79.265298 30.103622-76.801177 0-143.589302-62.092174-143.589302-138.51268 0-76.428693 66.789149-138.588405 143.589302-138.588405 73.212442 0 134.295636 60.770062 133.453455 137.703245l0.611937 0 0 426.370761L958.150758 709.022515l0 55.528688C958.099592 808.221818 917.33926 830.082708 885.242238 830.24746zM903.315872 662.018991l0-85.349877-0.016373 0-557.964868 0.711198L345.334631 713.4872c0 2.827395 2.059915 5.208629 4.811586 5.737678l546.31555 1.232061c0.346901 0.032746 0.677429 0.099261 1.048889 0.099261 1.388627 0 2.711761-0.478907 3.728928-1.396813 1.364067-1.090844 2.075265-2.711761 2.075265-4.448312L903.314849 662.018991z"  horiz-adv-x="1024" />

    
    <glyph glyph-name="liulan" unicode="&#58926;" d="M511.999488 240.67368699999997c-76.517721 0-138.76953 62.250786-138.76953 138.768507s62.251809 138.76953 138.76953 138.76953c76.516698 0 138.768507-62.251809 138.768507-138.76953S588.516186 240.67368699999997 511.999488 240.67368699999997zM511.999488 479.326089c-55.076386 0-99.883895-44.807509-99.883895-99.883895 0-55.075363 44.807509-99.882871 99.883895-99.882871 55.075363 0 99.882871 44.807509 99.882871 99.882871C611.88236 434.51858 567.074851 479.326089 511.999488 479.326089zM960.482873 364.553089c-7.040347-0.001023-13.8351 3.835352-17.289782 10.521634-35.639708 68.973908-99.196233 133.827985-174.370353 177.932482-76.656891 45.420469-167.369915 70.383-255.617795 70.383-0.773619 0-1.545192 0-2.317789 0-88.348164 0-179.051979-24.959461-255.640308-70.341045-75.247798-44.147476-138.804323-109.001553-174.443008-177.974437-4.929266-9.540284-16.656355-13.279445-26.198685-8.348132-9.53926 4.929266-13.277398 16.658402-8.348132 26.198685 38.922475 75.325569 107.897406 145.897881 189.240015 193.620789 41.174772 24.397666 85.84618 43.334971 132.702348 56.245002 47.355541 13.047154 95.715969 19.6045 143.847176 19.48375 48.006364 0.075725 96.396467-6.436596 143.750985-19.48375 46.856168-12.910031 91.527576-31.847336 132.775003-56.286957 81.269955-47.679929 150.244886-118.252241 189.167361-193.57781 4.929266-9.53926 1.192152-21.269419-8.348132-26.198685C966.538799 365.25302999999997 963.488323 364.553089 960.482873 364.553089zM513.240759 100.54315999999994c-0.859577 0-1.716084 0-2.575662 0-47.578622 0-95.531773 6.554276-142.465712 19.485797-46.856168 12.909008-91.527576 31.846312-132.773979 56.286957-81.269955 47.680952-150.244886 118.253264-189.167361 193.57781-4.929266 9.53926-1.192152 21.269419 8.348132 26.198685s21.268396 1.192152 26.198685-8.348132c35.639708-68.973908 99.19521-133.827985 174.370353-177.932482 76.656891-45.420469 167.369915-70.381977 255.617795-70.381977 0.772596 0 1.545192 0 2.317789 0 88.348164 0 179.050955 24.959461 255.639285 70.338998 75.246775 44.148499 138.803299 109.002576 174.444031 177.975461 4.930289 9.540284 16.658402 13.274328 26.199709 8.348132 9.53926-4.929266 13.277398-16.659425 8.347109-26.198685-38.923498-75.326593-107.898429-145.898905-189.241039-193.620789-41.173748-24.397666-85.84618-43.334971-132.702348-56.243979C608.8677 107.09845900000005 560.908408 100.54418299999998 513.240759 100.54315999999994z"  horiz-adv-x="1024" />

    
    <glyph glyph-name="lamp-opan" unicode="&#58941;" d="M637.322264 69.42953499999999L431.702186 69.42953499999999c-15.479553 0-28.039613-12.549827-28.039613-28.039613s12.559037-28.039613 28.039613-28.039613l205.620078 0c15.479553 0 28.039613 12.549827 28.039613 28.039613S652.80284 69.42953499999999 637.322264 69.42953499999999zM581.244061-24.034136999999987l-93.463672 0c-15.479553 0-28.039613-12.549827-28.039613-28.039613s12.559037-28.039613 28.039613-28.039613l93.463672 0c15.479553 0 28.039613 12.549827 28.039613 28.039613S596.724637-24.034136999999987 581.244061-24.034136999999987zM521.930163 696.954665c-149.049664 0-270.297123-119.111818-270.297123-265.514189 0-95.389534 50.822502-181.629687 133.798309-229.214449l15.231913-83.880409c2.445702-13.544481 14.256702-23.037692 27.54638-23.037692 1.660826 0 3.358491 0.155543 5.03876 0.456395 15.242146 2.774183 25.355481 17.369599 22.581298 32.602535l-17.633612 97.105618c-1.408069 7.78122-5.957689 14.184047-12.06785 18.254759l0.128937 0.265036C353.129666 279.75375099999997 307.712267 351.57756600000005 307.712267 431.441499c0 115.479081 96.092545 209.435986 214.217896 209.435986s214.217896-93.956905 214.217896-209.435986c0-70.693062-36.063357-135.947252-96.459912-174.904519-8.589632-3.388167-15.386432-10.900258-17.303085-20.639063l-21.10262-107.11867c-2.994194-15.19712 6.900154-29.937846 22.088064-32.931017 1.825578-0.36532 3.651157-0.538259 5.458315-0.538259 13.124925 0 24.844851 9.263991 27.473725 22.626323l18.671245 94.773504c73.506131 49.675376 117.253494 130.826628 117.253494 218.7317C792.227286 577.8438699999999 670.979828 696.954665 521.930163 696.954665zM493.927389 591.306486c-1.588171 10.1952-11.135618 17.204847-21.358447 15.579837-90.817402-14.184047-127.162168-98.402147-133.697001-140.944056-1.569752-10.18599 5.403057-19.687388 15.589047-21.275559 0.967024-0.155543 1.953492-0.228197 2.902096-0.228197 9.035794 0 16.97665 6.580882 18.455327 15.772218 0.621147 3.924379 16.301268 96.274694 102.517885 109.74652C488.542752 571.5454199999999 495.51556 581.111287 493.927389 591.306486zM453.584566 287.33031000000005c10.332323 0 18.692734 8.369621 18.692734 18.692734l0 98.437963 42.953278-34.592866c6.718005-5.421476 16.319687-5.53097 23.183002-0.209778l46.020126 35.706223 0-99.341542c0-10.323113 8.360412-18.692734 18.692734-18.692734 10.332323 0 18.692734 8.369621 18.692734 18.692734L621.819175 443.525722c0 7.137561-4.070712 13.645788-10.478655 16.785292-6.371104 3.148713-14.056134 2.363837-19.678178-2.016937l-64.493873-50.03558-61.865 49.825802c-5.586229 4.517897-13.289678 5.412266-19.787672 2.300392-6.499018-3.103688-10.623965-9.656941-10.623965-16.857946l0-137.502677C434.891831 295.699931 443.253266 287.33031000000005 453.584566 287.33031000000005zM171.312714 616.8175100000001l71.777767-41.437761c2.938935-1.697665 6.152117-2.50096 9.328459-2.50096 6.462179 0 12.742209 3.349281 16.210193 9.346879 5.16565 8.944719 2.098801 20.37198-6.845918 25.538653l-71.777767 41.437761c-8.944719 5.15644-20.37198 2.117221-25.538653-6.845918C159.301146 633.4104199999999 162.367994 621.983159 171.312714 616.8175100000001zM879.04663 251.38667999999996l-71.777767 41.437761c-8.9263 5.15644-20.37198 2.108011-25.538653-6.845918-5.16565-8.944719-2.098801-20.37198 6.845918-25.538653l71.777767-41.437761c2.938935-1.697665 6.152117-2.50096 9.328459-2.50096 6.462179 0 12.742209 3.349281 16.210193 9.346879C891.058199 234.79274699999996 887.99135 246.220007 879.04663 251.38667999999996zM502.653121 735.9559340000001c10.332323 0 18.692734 8.369621 18.692734 18.692734L521.345856 829.419606c0 10.323113-8.360412 18.692734-18.692734 18.692734-10.332323 0-18.692734-8.369621-18.692734-18.692734l0-74.770937C483.960387 744.325555 492.320798 735.9559340000001 502.653121 735.9559340000001zM351.523075 697.503157c3.467985-5.996574 9.748015-9.346879 16.210193-9.346879 3.176342 0 6.389524 0.803295 9.328459 2.50096 8.944719 5.16565 12.011568 16.593933 6.845918 25.538653l-41.437761 71.777767c-5.184069 8.953929-16.629749 12.011568-25.538653 6.845918-8.944719-5.16565-12.011568-16.593933-6.845918-25.538653L351.523075 697.503157zM222.262106 455.564919c0 10.323113-8.360412 18.692734-18.692734 18.692734l-93.463672 0c-10.332323 0-18.692734-8.369621-18.692734-18.692734s8.360412-18.692734 18.692734-18.692734l93.463672 0C213.901695 436.872185 222.262106 445.241806 222.262106 455.564919zM913.8943 474.257653l-93.463672 0c-10.332323 0-18.692734-8.369621-18.692734-18.692734s8.360412-18.692734 18.692734-18.692734l93.463672 0c10.332323 0 18.692734 8.369621 18.692734 18.692734S924.226622 474.257653 913.8943 474.257653zM243.090481 292.824441l-71.777767-41.437761c-8.944719-5.16565-12.011568-16.593933-6.845918-25.538653 3.467985-5.996574 9.748015-9.346879 16.210193-9.346879 3.176342 0 6.389524 0.803295 9.328459 2.50096l71.777767 41.437761c8.944719 5.16565 12.011568 16.593933 6.845918 25.538653C263.444041 294.932452 251.998361 297.981904 243.090481 292.824441zM797.940404 572.877765c3.176342 0 6.389524 0.803295 9.328459 2.50096l71.777767 41.437761c8.944719 5.16565 12.011568 16.593933 6.845918 25.538653-5.184069 8.963139-16.648169 12.002358-25.538653 6.845918l-71.777767-41.437761c-8.944719-5.16565-12.011568-16.593933-6.845918-25.538653C785.199219 576.228069 791.478226 572.877765 797.940404 572.877765zM673.316036 690.657238c2.938935-1.697665 6.152117-2.50096 9.328459-2.50096 6.462179 0 12.742209 3.349281 16.210193 9.346879l41.437761 71.777767c5.16565 8.944719 2.099824 20.37198-6.845918 25.538653-8.944719 5.16565-20.37198 2.108011-25.538653-6.845918l-41.437761-71.777767C661.304468 707.251172 664.371316 695.822888 673.316036 690.657238z"  horiz-adv-x="1024" />

    
    <glyph glyph-name="shouji1" unicode="&#58893;" d="M724.276722 896L348.906728 896c-46.972519 0-85.331781-38.437387-85.331781-85.31225L263.574947-42.66912500000001c0-46.933456 38.339731-85.331781 85.331781-85.331781l375.369994 0c46.933456 0 85.331781 38.398325 85.331781 85.331781L809.608503 810.68775C809.608503 857.562613 771.210178 896 724.276722 896zM485.390703 827.758012l102.402044 0c9.433566 0 17.128856-7.656228 17.128856-17.089794 0-9.472628-7.69529-17.089794-17.128856-17.089794l-102.402044 0c-9.394504 0-16.992138 7.597634-16.992138 17.089794C468.398565 820.1017850000001 475.996199 827.758012 485.390703 827.758012zM536.542897-93.84085000000005c-28.242105 0-51.191256 22.871027-51.191256 51.152194s22.949152 51.24985 51.191256 51.24985c28.378823 0 51.24985-22.949152 51.24985-51.24985S564.941251-93.84085000000005 536.542897-93.84085000000005zM775.565634 42.643125000000055L297.754534 42.643125000000055 297.754534 725.355969l477.8111 0L775.565634 42.643125000000055z"  horiz-adv-x="1024" />

    
    <glyph glyph-name="wechat-copy" unicode="&#58899;" d="M693.12 548.736c11.776 0 23.36-0.896 35.008-2.176-31.36 146.048-187.456 254.528-365.696 254.528-199.232 0-362.432-135.744-362.432-308.224 0-99.52 54.272-181.248 145.024-244.736l-36.224-108.992 126.72 63.488c45.312-8.896 81.664-18.112 126.912-18.112 11.392 0 22.656 0.512 33.792 1.344-7.040 24.256-11.2 49.6-11.2 76.032 0.064 158.336 136 286.848 308.096 286.848zM498.304 646.976c27.392 0 45.376-17.984 45.376-45.248 0-27.136-17.984-45.312-45.376-45.312-27.072 0-54.336 18.176-54.336 45.312 0 27.328 27.2 45.248 54.336 45.248zM244.672 556.416c-27.2 0-54.592 18.176-54.592 45.312 0 27.264 27.392 45.248 54.592 45.248s45.248-17.92 45.248-45.248c0-27.136-18.048-45.312-45.248-45.312zM1024 266.24c0 144.896-145.024 262.976-307.904 262.976-172.48 0-308.224-118.144-308.224-262.976 0-145.28 135.808-262.976 308.224-262.976 36.096 0 72.512 9.024 108.736 18.112l99.392-54.528-27.264 90.624c72.768 54.656 127.040 127.040 127.040 208.768zM616.128 311.616c-17.984 0-36.224 17.92-36.224 36.224 0 18.048 18.24 36.224 36.224 36.224 27.52 0 45.376-18.176 45.376-36.224 0-18.304-17.856-36.224-45.376-36.224zM815.488 311.616c-17.856 0-36.032 17.92-36.032 36.224 0 18.048 18.112 36.224 36.032 36.224 27.264 0 45.376-18.176 45.376-36.224 0-18.304-18.112-36.224-45.376-36.224z"  horiz-adv-x="1024" />

    
    <glyph glyph-name="wanketubiao04" unicode="&#58936;" d="M896.36352 442.94144c-34.26816 131.2256-133.9392 235.94496-262.08768 277.376C624.1024 778.65472 573.25056 823.0144 512 823.0144c-61.25056 0-112.10752-44.3648-122.27584-102.70208C261.61152 678.87616 161.9968 574.17728 127.72352 442.97216 57.50784 415.5648 15.36 380.50816 15.36 342.2976c0-38.20544 42.15296-73.24672 112.3584-100.65408 44.57472-170.66496 199.64928-296.65792 384.2816-296.65792 184.64768 0 339.79904 125.99296 384.36352 296.6784C966.528 269.07136 1008.64 304.10752 1008.64 342.2976 1008.64 380.4928 966.52288 415.53408 896.36352 442.94144zM457.3696 665.49248l0 11.2128 0 21.72928c0 0.06656 0.01024 0.128 0.01024 0.18944 0 0.0768-0.01024 0.1536-0.01024 0.2304 0 30.17216 24.45824 54.6304 54.6304 54.6304s54.6304-24.45824 54.6304-54.6304c0-0.06144-0.01024-0.11776-0.01024-0.1792 0-0.08192 0.01024-0.15872 0.01024-0.24064l0-21.72928 0-11.2128c112.36864-18.8672 205.32224-94.88896 247.96672-197.17632-83.78368 20.6336-188.70272 32.91136-302.59712 32.91136-113.87904 0-218.78784-12.27264-302.5664-32.90112C252.07296 570.60352 345.0112 646.6201599999999 457.3696 665.49248zM833.26464 283.53024000000005c-1.08032-9.8304-3.32288-23.60832-3.97312-23.7568-29.76256-114.74944-120.1152-205.07648-234.87488-234.8032-51.54304 50.3552-85.20704 118.912-90.51136 195.31264 26.60864 12.84096 45.00992 39.99744 45.00992 71.52128 0 43.88352-35.57888 79.4624-79.4624 79.4624s-79.4624-35.57888-79.4624-79.4624c0-31.22176 18.048-58.15808 44.24192-71.15264 4.29056-77.40416 32.26624-148.43392 76.74368-206.11584-150.4 0.4608-276.88448 102.23616-314.96192 240.64512-1.16736 0.2304-4.24448 16.44544-4.55168 29.17376-67.35872 13.66016-106.5728 36.29568-106.5728 57.94304 0 49.37216 191.22176 89.3952 427.1104 89.3952 235.88864 0 427.1104-40.02304 427.1104-89.3952C939.1104 319.87199999999996 899.4816 299.04895999999997 833.26464 283.53024000000005z"  horiz-adv-x="1024" />

    
    <glyph glyph-name="weibo-logo" unicode="&#58900;" d="M827.713409 372.68446900000004c-17.501007 11.048424-37.124864 19.998007-58.829555 26.850751-4.573831 1.530613-7.81713 2.667068-9.721893 3.431374-1.902762 0.762305-4.197681 2.186876-6.852744 4.283715-2.671069 2.09884-3.535416 4.481794-2.569029 7.144861 0.958384 2.665067 1.806723 6.470591 2.569029 11.420573 17.124857 43.793535 17.124857 77.687105 0 101.678711-17.531019 23.229301-46.648678 34.847953-87.410999 34.847953-40.746314 0-87.587069-11.2385-140.514261-33.703495l-3.437376-1.144458c-2.270909-0.762305-4.84594-1.420569-7.697082-1.996799-2.863146-0.576231-5.626253-0.666267-8.289319-0.288115-2.657064 0.376151-4.563827 1.708684-5.708286 3.9956-1.144458 2.286916-0.94838 6.09444 0.57423 11.426575 17.128858 55.22211 13.327336 95.014043-11.430577 119.391803-28.177282 28.179283-75.112074 29.511816-140.810379 3.9956-65.680298-25.522219-130.704333-70.45621-195.070104-134.821981-48.743516-48.743516-86.352575-97.871187-112.819172-147.379009C13.227296 332.30230100000006 0 285.66562799999997 0 241.86008900000002c0-41.124466 12.376956-79.111676 37.124864-113.96363 24.759914-34.851954 57.408986-63.601465 97.971227-86.258537 40.552237-22.649068 86.350574-40.370164 137.379005-53.127272 51.030432-12.749105 103.397399-19.13166 157.092899-19.13166 53.6975 0 105.202122 5.896361 154.513866 17.701087 49.311744 11.810729 92.352977 27.607054 129.093688 47.414985 36.756717 19.795926 68.841564 42.170885 96.25654 67.122875 27.428982 24.943987 48.175289 51.016426 62.272933 78.261335 14.091642 27.2229 21.144466 53.791538 21.144466 79.677902 0 24.369757-6.462588 46.566645-19.425778 66.554648C860.48453 346.12583600000005 845.242427 361.64204800000005 827.713409 372.68446900000004zM641.220739 110.73758799999996c-55.790338-45.124067-126.150509-72.066855-211.070511-80.824361-55.602263-5.334136-107.873191-1.334534-156.804783 11.994803-48.933593 13.339341-88.63949 34.085648-119.101687 62.266931-30.466198 28.191288-47.412984 60.564249-50.840356 97.126889-5.336137 55.598261 19.897967 105.958425 75.688305 151.086494 55.790338 45.138073 126.150509 72.07886 211.072511 80.836366 55.602263 5.338137 107.86919 1.332534 156.792778-11.996803 48.929591-13.327336 88.643492-34.081646 119.111691-62.260929 30.4702-28.189287 47.408982-60.562249 50.832353-97.118885C722.227173 206.239826 697.011077 155.87966300000005 641.220739 110.73758799999996zM446.716861 347.52839700000004c-40.364161 10.286118-80.448211 6.656665-120.244145-10.858348-39.799936-17.515013-68.641483-43.973607-86.542651-79.399791-17.899167-36.166481-19.141664-71.874778-3.715488-107.100882 15.426176-35.228105 43.50742-59.311748 84.257736-72.270937 42.268924-13.701486 84.928004-11.420573 127.957233 6.86875 43.03323 18.28132 73.113274 46.846757 90.266142 85.682306 17.124857 38.091251 16.650667 74.359773-1.438576 108.829574C519.157866 313.730865 488.985785 336.483975 446.716861 347.52839700000004zM385.592388 162.44629199999997c-8.379355-12.941182-20.278119-21.992806-35.710298-27.128862-15.422175-5.148061-29.617859-4.66987-42.55904 1.42457-12.945183 6.09444-21.132461 15.708289-24.559834 28.853553-3.429373 13.127256-0.954382 26.162475 7.422972 39.117662 7.9932 12.577036 19.421776 21.32854 34.271722 26.272519 14.857949 4.951983 28.755513 4.765908 41.704698-0.568228 13.329337-5.704284 21.90477-15.2341 25.712295-28.557434C395.680427 188.532737 393.58959 175.401479 385.592388 162.44629199999997zM439.283885 231.58197299999995c-2.663066-4.957985-6.856745-8.483397-12.565031-10.578235-5.712287-2.09684-11.2385-2.184875-16.566633-0.288115-11.420573 5.340138-13.895564 13.897564-7.424973 25.704292 2.665067 4.957985 6.758706 8.475393 12.276916 10.578235 5.518209 2.094839 10.944382 2.184875 16.278518 0.280112 4.949982-1.894759 8.281316-5.428173 10.000004-10.570232C442.995371 241.57797600000004 442.333106 236.51795000000004 439.283885 231.58197299999995zM816.292836 482.066265c4.205684-8.189279 10.668271-13.803527 19.43178-16.852748 8.76551-2.665067 17.226897-1.906763 25.416176 2.286916 8.189279 4.183675 13.809529 10.658267 16.85875 19.421776 7.228894 21.320537 8.475393 43.701498 3.69748 67.116873-4.751903 23.417376-15.130058 44.08165-31.112457 61.980817-15.994404 17.901167-35.242111 30.374162-57.701103 37.422984-22.470997 7.044821-45.13007 8.089239-67.971215 3.139257-9.153665-1.906763-16.194484-6.764709-21.150468-14.569834-4.94398-7.803124-6.462588-16.278518-4.551823-25.416176 1.520609-9.14166 6.272511-16.186481 14.26171-21.136463 8.005205-4.949982 16.570635-6.472592 25.718297-4.573831 23.999609 4.951983 44.35576-1.714687 61.124474-19.992005 16.762712-18.275317 21.320537-39.41178 13.709489-63.407388C811.334851 498.728936 812.109161 490.253543 816.292836 482.066265zM1018.241694 582.0382930000001c-9.721893 48.169287-31.134466 90.538251-64.267732 127.094888-33.137268 36.934788-72.741125 62.547043-118.837581 76.836765-46.074448 14.283719-92.523045 16.470595-139.377806 6.570631-10.668271-2.286916-18.953589-7.901164-24.855952-16.854748-5.902363-8.955586-7.711087-18.75751-5.416169-29.42178 2.280913-10.66427 7.983196-18.945586 17.136861-24.847949 9.127655-5.902363 19.035622-7.713088 29.689888-5.426173 33.139269 6.850743 66.08646 5.230094 98.831571-4.857945 32.755115-10.092041 60.938399-28.27132 84.553855-54.549841 23.603451-25.898369 38.851556-55.978413 45.7063-90.258139 6.860747-34.269721 4.957985-67.022835-5.710286-98.249338-3.041218-10.288119-2.094839-20.188083 2.863146-29.709896 4.94398-9.519812 12.557028-15.990402 22.841145-19.421776 10.286118-3.419369 20.186082-2.663066 29.703893 2.286916 9.523813 4.949982 16.000406 12.565031 19.43178 22.849149C1025.382554 487.87459 1027.949581 533.861003 1018.241694 582.0382930000001z"  horiz-adv-x="1025" />

    
    <glyph glyph-name="yingyong" unicode="&#3649;" d="M1008.302197 589.443265L789.691542 370.83261000000005C769.561962 350.70303 736.950904 350.70303 716.821324 370.83261000000005L498.2391 589.443265C478.10952 609.544414 478.10952 642.183903 498.2391 662.285052L716.821324 880.895707C736.950904 901.025287 769.561962 901.025287 789.691542 880.895707L1008.302197 662.285052C1028.431777 642.183903 1028.431777 609.544414 1008.302197 589.443265ZM753.668691 841.176747L537.958061 625.466116 753.668691 409.755485 969.379322 625.466116 753.668691 841.176747ZM369.841946-127.97156800000005L57.094228-127.97156800000005C25.677298-127.97156800000005 0.231007-102.52527699999996 0.231007-71.10834699999998L0.231007 241.63937099999998C0.231007 273.027869 25.677298 298.50259300000005 57.094228 298.50259300000005L369.841946 298.50259300000005C401.230445 298.50259300000005 426.705168 273.027869 426.705168 241.63937099999998L426.705168-71.10834699999998C426.705168-102.52527699999996 401.230445-127.97156800000005 369.841946-127.97156800000005ZM369.841946 241.63937099999998L57.094228 241.63937099999998 57.094228-71.10834699999998 369.841946-71.10834699999998 369.841946 241.63937099999998ZM369.841946 383.797425L57.094228 383.797425C25.677298 383.797425 0.231007 409.243716 0.231007 440.660646L0.231007 753.408364C0.231007 784.796863 25.677298 810.271586 57.094228 810.271586L369.841946 810.271586C401.230445 810.271586 426.705168 784.796863 426.705168 753.408364L426.705168 440.660646C426.705168 409.243716 401.230445 383.797425 369.841946 383.797425ZM369.841946 753.408364L57.094228 753.408364 57.094228 440.660646 369.841946 440.660646 369.841946 753.408364ZM568.863221 298.50259300000005L881.61094 298.50259300000005C912.999438 298.50259300000005 938.474161 273.027869 938.474161 241.63937099999998L938.474161-71.10834699999998C938.474161-102.52527699999996 912.999438-127.97156800000005 881.61094-127.97156800000005L568.863221-127.97156800000005C537.446292-127.97156800000005 512-102.52527699999996 512-71.10834699999998L512 241.63937099999998C512 273.027869 537.446292 298.50259300000005 568.863221 298.50259300000005ZM568.863221-71.10834699999998L881.61094-71.10834699999998 881.61094 241.63937099999998 568.863221 241.63937099999998 568.863221-71.10834699999998Z"  horiz-adv-x="1024" />

    
    <glyph glyph-name="qq" unicode="&#58968;" d="M944.0512 208.76800000000003c-6.8096 93.8368-69.7728 172.4672-106.176 213.12 5.056 11.8272 17.344 80.2944-30.1312 127.0272 0.064 1.1136 0.064 2.24 0.064 3.328 0 184.3072-131.1872 316.9792-295.7952 317.5808C347.3664 869.2096 216.192 736.5504 216.192 552.2432c0-1.088-0.0128-2.2016 0.064-3.328-47.4752-46.72-35.1616-115.2-30.1312-127.0272-36.3648-40.6656-99.3536-119.2832-106.176-213.12-1.2288-24.6656 2.5856-60.5952 14.6304-76.5696 14.6816-19.4688 54.9888 3.9168 83.8144 66.1376 8.0128-28.8384 26.5216-72.8448 68.416-128.704-70.0928-16-90.0864-85.12-66.5088-122.9184 16.64-26.624 54.7072-48.5248 120.3328-48.5248 116.7488 0 168.2944 31.3728 191.3088 53.2224 4.6848 4.7616 11.456 7.0656 20.0832 7.0784 8.6144-0.0128 15.3856-2.3168 20.0576-7.0784 23.0016-21.8496 74.5856-53.2224 191.2832-53.2224 65.6512 0 103.7056 21.9008 120.32 48.5248 23.5904 37.7856 3.5968 106.9184-66.4704 122.9184 41.8816 55.8592 60.4032 99.8656 68.416 128.704 28.8256-62.2208 69.1328-85.6064 83.8272-66.1376C941.4912 148.15999999999997 945.3184 184.1024 944.0512 208.76800000000003L944.0512 208.76800000000003z"  horiz-adv-x="1024" />

    
    <glyph glyph-name="tougaoxuanzhongshi" unicode="&#59031;" d="M969.065342 48.12941599999999l-336.844771 1.416256L989.588771 400.166191c20.891819 20.892843 20.891819 54.894238 0 75.806523L651.541615 813.999404c-20.891819 20.910239-54.896284 20.891819-75.789127 0L46.783001 285.06471c-20.871353-20.913309-20.891819-54.911634 0-75.803453L210.351334 45.74511299999995l-155.417699 2.384303c-21.422915 0-38.85903-16.960277-39.644929-38.187741 0.786922-21.22951 18.22099-38.189787 39.644929-38.189787l914.131707 0c21.405519 0 38.85903 16.960277 39.645952 38.188764C1007.924371 31.168116000000055 990.470861 48.12941599999999 969.065342 48.12941599999999zM564.297598 267.403468l-400.896576-45.208645c-0.973164-0.118704-1.945305-0.156566-2.899026-0.156566-12.897751 0-24.025183 9.691733-25.50386 22.818705-1.595334 14.102183 8.540514 26.805506 22.644743 28.402887l380.802936 42.951231 48.53439 385.43135c1.769296 14.06432 14.744819 23.945365 28.692482 22.292726 14.083763-1.77032 24.064069-14.629185 22.287609-28.710902l-51.042513-405.506571C585.442174 277.965012 576.104505 268.72558000000004 564.297598 267.403468z"  horiz-adv-x="1024" />

    
    <glyph glyph-name="weiXin-copy" unicode="&#58939;" d="M539.775 543.361c25.207 0 42.048 17.641 42.048 43.919 0 26.569-16.817 43.765-42.048 43.765-25.231 0-50.548-17.199-50.548-43.765 0.023-26.272 25.356-43.919 50.548-43.919zM304.635 631.0360000000001c-25.194 0-50.673-17.199-50.673-43.765 0-26.272 25.475-43.919 50.673-43.919 25.107 0 41.926 17.641 41.926 43.919-0.037 26.569-16.817 43.765-41.926 43.765zM900.195 72.697c-5.114-4.038-7.286-10.977-5.447-17.379l14.474-50.354-59.427 34.003c-2.27 1.312-4.809 1.977-7.348 1.977-1.263 0-2.515-0.159-3.743-0.502-31.879-8.427-64.851-17.1-96.976-17.1-149.182 0-270.543 107.169-270.543 238.897 0 131.727 121.361 238.875 270.543 238.875 146.34 0 269.991-109.377 269.991-238.875 0-65.686-39.596-133.002-111.523-189.538zM443.867 200.327c-9.947-0.895-20.055-1.339-30.067-1.339-33.807 0-62.411 6.109-95.482 13.248l-19.23 4.059c-3.298 0.734-6.795 0.257-9.824-1.373l-84.487-44.21 21.957 68.948c2.147 6.758-0.208 14.119-5.753 18.19-84.883 61.845-127.911 137.197-127.911 223.92 0 155.887 143.87 282.748 320.698 282.748 156.333 0 294.731-99.419 323.312-231.658-163.925-2.243-296.546-122.7-296.546-270.653 0-21.516 3.129-42.355 8.391-62.458-1.594 0.419-3.276 0.734-5.053 0.579zM1042.332 262.20799999999997c0 138.925-123.277 257.305-274.603 269.623 0.208 1.727 0.294 3.518-0.061 5.322-30.348 147.882-182.483 259.381-353.9 259.381-193.71 0-351.315-141.195-351.315-314.763 0-93.127 45.47-177.027 131.641-243.188l-30.039-94.402c-1.926-6.145-0.183-12.905 4.501-17.159 2.85-2.564 6.428-3.898 10.047-3.898 2.329 0 4.684 0.566 6.858 1.694l112.774 58.998 13.911-2.956c34.723-7.458 64.704-13.922 101.626-13.922 10.882 0 21.897 0.513 32.714 1.472 4.377 0.395 8.083 2.687 10.585 6.025 40.674-106.373 152.737-183.171 284.637-183.171 33.767 0 67.979 8.512 98.656 16.544l86.93-49.678c2.306-1.312 4.846-1.985 7.348-1.985 3.437 0 6.868 1.213 9.616 3.557 4.846 4.097 6.832 10.855 5.025 17.025l-22.202 77.175c74.442 61.503 115.252 135.06 115.252 208.305zM615.409 341.139c0-17.665 16.817-35.12 33.623-35.12 25.269 0 41.95 17.456 41.95 35.12 0 17.579-16.681 35.248-41.95 35.248-16.805 0-33.623-17.714-33.623-35.248zM800.371 341.139c0-17.665 16.805-35.12 33.377-35.12 25.171 0 42.158 17.456 42.158 35.12 0 17.579-16.965 35.248-42.158 35.248-16.571 0-33.377-17.714-33.377-35.248z"  horiz-adv-x="1103" />

    
    <glyph glyph-name="bianji1" unicode="&#59059;" d="M64 151.015l0-170.204 170.237 0L727.09 478.098l-170.295 170.2L64 151.015 64 151.015zM856.969 608.006c17.977 17.913 17.977 44.821 0 62.673L754.003 773.774c-17.987 17.886-44.821 17.886-62.811 0l-80.65-80.654 170.295-170.267L856.969 608.006 856.969 608.006zM467.212 70.394l-89.583-89.583L960-19.188999999999965l0 89.583L467.212 70.394 467.212 70.394z"  horiz-adv-x="1024" />

    
    <glyph glyph-name="zititubiaohuabi" unicode="&#59023;" d="M958.293333 835.626667c-18.56 16.426667-40.149333 24.618667-64.896 24.618667-25.088 0-48.042667-9.514667-68.864-28.586667l-337.962667-306.730667c-32.512-29.653333-48.725333-67.114667-48.725333-112.298667 0-44.842667 15.957333-83.626667 47.914667-116.266667 31.957333-32.682667 70.186667-48.981333 114.688-48.981333 42.752 0 81.237333 16.042667 115.498667 48.213333 46.976 43.434667 129.066667 176.213333 246.314667 398.336 15.872 31.061333 23.850667 57.728 23.850667 80C986.112 798.634667 976.810667 819.2 958.293333 835.626667zM468.309333 243.66933300000005c-23.850667 19.072-42.666667 42.026667-56.405333 68.864-25.770667-1.066667-47.872-2.901333-66.218667-5.546667-18.346667-2.645333-36.565333-7.168-54.570667-13.525333-18.005333-6.357333-33.536-14.72-46.634667-25.173333-13.056-10.410667-25.344-23.850667-36.821333-40.234667-11.477333-16.426667-21.632-36.266667-30.464-59.605333-4.949333-13.056-14.634667-19.584-29.141333-19.584-5.290667 0-13.397333 2.986667-24.362667 9.002667-10.965333 6.016-21.376 12.458667-31.274667 19.328-9.898667 6.869333-20.821333 14.762667-32.853333 23.552-12.032 8.832-19.242667 14.122667-21.717333 15.872 0-41.685333 5.12-80.512 15.36-116.522667 10.24-36.010667 25.514667-68.352 45.824-96.938667 20.309333-28.586667 47.232-51.114667 80.768-67.541333 33.536-16.426667 72.064-24.618667 115.498667-24.618667 75.946667 0 137.472 23.637333 184.618667 70.997333 47.146667 47.317333 70.016 108.586667 68.608 183.808l-0.512 37.589333C518.698667 211.20000000000005 492.117333 224.59733300000005 468.309333 243.66933300000005z"  horiz-adv-x="1024" />

    
    <glyph glyph-name="duihaotubiao2x" unicode="&#3655;" d="M512 896C228.430769 896 0 667.569231 0 384S228.430769-128 512-128 1024 100.43076900000005 1024 384c0 118.153846-39.384615 220.553846-102.4 307.2 39.384615 39.384615 63.015385 63.015385 63.015385 63.015385l-23.630769 31.507692c-23.630769-15.753846-47.261538-31.507692-70.892308-47.261538C787.692308 832.984615 661.661538 896 512 896L512 896zM512-49.23076900000001C275.692308-49.23076900000001 78.769231 147.69230800000003 78.769231 384S275.692308 817.230769 512 817.230769C630.153846 817.230769 740.430769 769.969231 819.2 683.323077 606.523077 502.153846 472.615385 297.353846 472.615385 297.353846L401.723077 368.24615400000005 315.076923 454.892308l-63.015385-78.769231c102.4-78.769231 259.938462-275.692308 259.938462-275.692308 86.646154 220.553846 244.184615 417.476923 354.461538 543.507692 47.261538-70.892308 78.769231-157.538462 78.769231-252.061538C945.230769 147.69230800000003 748.307692-49.23076900000001 512-49.23076900000001L512-49.23076900000001z"  horiz-adv-x="1024" />

    
    <glyph glyph-name="touxiang1" unicode="&#58891;" d="M512 896C229.227947 896 0 666.7680809999999 0 384 0 101.23191899999995 229.231787-128.00101100000006 512-128.00101100000006 794.845867-128.00101100000006 1024 101.230908 1024 384 1024 666.769092 794.768213 896 512 896L512 896ZM644.681813 76.79636500000004C614.547627 95.81390899999997 624.201813 199.678626 624.201813 199.678626L644.681813 217.59903999999995C644.681813 217.59903999999995 649.87648 264.631168 658.795947 281.59677 678.69184 319.77618299999995 699.755947 383.99697100000003 699.755947 383.99697100000003 699.755947 383.99697100000003 720.235947 398.917696 720.235947 424.957052 720.235947 450.996407 699.755947 465.917133 699.755947 465.917133 699.755947 465.917133 707.435947 538.4011949999999 707.435947 588.799394 707.435947 694.636318 641.021013 752.6387070000001 521.580373 752.6387070000001 402.209707 752.6387070000001 315.0976 703.340663 315.0976 588.799394 315.0976 538.403213 331.11552 465.917133 331.11552 465.917133 331.11552 465.917133 310.63552 450.996407 310.63552 424.957052 310.63552 398.917696 331.11552 383.99697100000003 331.11552 383.99697100000003 331.11552 383.99697100000003 355.03232 309.68100300000003 372.07552 281.59677 382.0224 265.21152900000004 386.119253 217.59903999999995 386.119253 217.59903999999995L406.600107 199.678626C406.600107 199.678626 416.326827 95.81491600000004 386.119253 76.79636500000004 358.837333 59.67936899999995 242.464 37.00608399999999 214.01344 20.402828999999997 215.403093 19.087688999999955 40.959147 164.93190000000004 40.959147 383.99697100000003 40.959147 644.168478 251.831467 854.963213 512 854.963213 772.168533 854.963213 983.040853 644.0907609999999 983.040853 383.99697100000003 983.04 238.514095 916.992427 108.46669699999995 813.348693 22.084347999999977 780.654933 38.47161200000005 671.161173 60.194120999999996 644.681813 76.79636500000004Z"  horiz-adv-x="1024" />

    
    <glyph glyph-name="arrows-copy-copy" unicode="&#58910;" d="M490.068 611.588c12.692 12.692 33.188 12.774 45.78 0.184l413.771-413.772c12.591-12.591 12.508-33.088-0.184-45.78v0c-12.692-12.692-33.188-12.774-45.78-0.184l-413.772 413.772c-12.589 12.591-12.507 33.087 0.185 45.779v0zM76.148 153.26300000000003c-12.692 12.692-12.774 33.188-0.184 45.78l413.772 413.771c12.591 12.591 33.088 12.508 45.78-0.184v0c12.692-12.692 12.774-33.188 0.184-45.78l-413.771-413.771c-12.591-12.59-33.088-12.508-45.78 0.184v0z"  horiz-adv-x="1024" />

    
    <glyph glyph-name="wangluo" unicode="&#58901;" d="M512.273067-93.52533300000005h-0.1024a475.818667 475.818667 0 0 0-337.681067 139.844266A475.818667 475.818667 0 0 0 34.645333 384a475.7504 475.7504 0 0 0 139.810134 337.681067 475.9552 475.9552 0 0 0 337.749333 139.8784 475.886933 475.886933 0 0 0 337.646933-139.844267A475.8528 475.8528 0 0 0 989.730133 384a475.886933 475.886933 0 0 0-139.844266-337.681067 475.818667 475.818667 0 0 0-337.6128-139.844266z m-0.068267 939.895466a459.400533 459.400533 0 0 1-326.997333-135.441066A459.127467 459.127467 0 0 1 49.834667 384c0-123.528533 48.093867-239.616 135.406933-326.929067a459.298133 459.298133 0 0 1 326.929067-135.406933h0.1024c123.460267 0 239.547733 48.093867 326.8608 135.406933A459.298133 459.298133 0 0 1 974.5408 384c0 123.4944-48.093867 239.616-135.406933 326.929067a459.332267 459.332267 0 0 1-326.929067 135.441066zM504.593067 852.241067h15.701333v-936.482134h-15.701333V852.241067zM43.9296 391.611733h936.482133v-15.735466H43.9296v15.701333zM477.252267-90.21439999999996c-2.184533 1.706667-54.408533 43.178667-107.349334 122.606933a642.321067 642.321067 0 0 0-73.557333 148.548267A627.029333 627.029333 0 0 0 262.894933 384c0 69.7344 11.264 138.069333 33.450667 203.093333A642.321067 642.321067 0 0 0 369.902933 735.573333c52.906667 79.394133 105.130667 120.866133 107.349334 122.606934l9.386666-11.946667c-0.682667-0.546133-52.906667-42.154667-104.448-119.569067-47.445333-71.406933-104.106667-188.791467-104.106666-342.698666 0-153.9072 56.661333-271.291733 104.106666-342.698667 51.6096-77.550933 103.936-119.159467 104.448-119.569067l-9.386666-11.946666z m9.386666 936.482133l-4.676266 5.973334 4.676266-5.973334zM547.054933-90.21439999999996l-9.386666 11.946667c0.546133 0.4096 52.8384 41.984 104.448 119.569066 47.5136 71.406933 104.106667 188.791467 104.106666 342.698667 0 153.9072-56.593067 271.291733-104.106666 342.698667-51.6096 77.550933-103.901867 119.159467-104.448 119.569066l9.386666 11.946667c2.218667-1.706667 54.442667-43.2128 107.383467-122.606933a642.2528 642.2528 0 0 0 73.557333-148.548267c22.186667-64.989867 33.450667-133.3248 33.450667-203.0592 0-69.7344-11.264-138.069333-33.450667-203.093333a642.321067 642.321067 0 0 0-73.557333-148.514134c-52.9408-79.428267-105.1648-120.900267-107.383467-122.606933zM512.170667 527.428267c-66.218667 0-126.702933 8.055467-179.882667 23.927466-42.734933 12.765867-80.861867 30.583467-113.322667 52.9408-55.7056 38.434133-75.298133 76.8-76.117333 78.404267l13.6192 6.792533-6.826667-3.413333 6.826667 3.413333c0.170667-0.341333 19.114667-37.0688 72.0896-73.3184 49.015467-33.553067 138.001067-73.557333 283.648-73.557333 145.578667 0 234.5984 40.004267 283.613867 73.557333 52.906667 36.2496 71.8848 72.977067 72.0896 73.3184l13.585066-6.826666c-0.8192-1.570133-20.411733-39.936-76.117333-78.370134-32.4608-22.357333-70.587733-40.174933-113.322667-52.906666-53.179733-15.906133-113.664-23.9616-179.882666-23.9616zM156.433067 78.506667l-13.550934 6.826666c0.785067 1.570133 20.3776 39.936 76.117334 78.370134 32.426667 22.357333 70.5536 40.174933 113.322666 52.906666 53.1456 15.906133 113.664 23.9616 179.882667 23.9616 66.1504 0 126.6688-8.055467 179.882667-23.927466 42.7008-12.765867 80.827733-30.583467 113.2544-52.9408 55.739733-38.434133 75.332267-76.8 76.117333-78.404267l-13.550933-6.792533c-0.2048 0.341333-19.1488 37.0688-72.0896 73.3184-49.015467 33.553067-138.0352 73.557333-283.648 73.557333-145.6128 0-234.5984-40.004267-283.648-73.557333-52.906667-36.2496-71.8848-72.977067-72.0896-73.3184z"  horiz-adv-x="1024" />

    
    <glyph glyph-name="shoucang" unicode="&#59334;" d="M943.733 504.423l-286.245 41.658c-0.568 0.083-1.237 0.57-1.489 1.083L527.982 806.498c-0.254 0.513-0.666 0.513-0.918 0l-128.02-259.334c-0.254-0.513-0.923-1-1.49-1.083l-286.246-41.658c-0.566-0.082-0.694-0.476-0.285-0.875L318.18 301.703c0.41-0.4 0.665-1.187 0.569-1.751l-48.876-285.064c-0.096-0.566 0.238-0.808 0.745-0.542l255.983 134.568c0.25 0.132 0.58 0.196 0.911 0.198 0.916 40.568 21.726 73.089 47.315 73.089h66.365v66.364c0 26.17 33.962 47.41 75.92 47.41 16.972 0 32.646-3.494 45.284-9.393l181.62 176.966c0.411 0.4 0.283 0.793-0.283 0.875zM830.83 184.24199999999996h-75.812v75.92c0 20.872-17.033 37.908-37.907 37.908-20.978 0-38.012-17.034-38.012-37.908v-75.92h-75.814c-20.98 0-37.91-17.034-37.91-37.908 0-20.926 16.93-37.96 37.91-37.96h75.814v-75.867c0-20.927 17.034-37.96 38.012-37.96 20.874 0 37.906 17.033 37.907 37.96v75.867h75.813c20.98 0 37.91 17.034 37.91 37.96 0 20.874-16.93 37.908-37.91 37.908z"  horiz-adv-x="1024" />

    
    <glyph glyph-name="pinglun1" unicode="&#58916;" d="M255.218 518.816c-35.291 0-63.903-29.674-63.903-66.292s28.611-66.292 63.903-66.292c35.291 0 63.903 29.674 63.903 66.292 0 36.615-28.611 66.292-63.903 66.292zM510.835 518.816c-35.291 0-63.903-29.674-63.903-66.292s28.614-66.292 63.903-66.292 63.903 29.674 63.903 66.292c0 36.615-28.614 66.292-63.903 66.292zM766.451 518.816c-35.291 0-63.904-29.674-63.904-66.292s28.614-66.292 63.904-66.292 63.903 29.674 63.903 66.292c0 36.615-28.614 66.292-63.903 66.292zM894.257 850.257h-766.846c-70.582 0-127.807-59.363-127.807-132.581v-497.158c0-73.219 58.506-140.713 130.709-140.713h194.769c33.949-36.165 174.458-181.636 174.458-181.636 6.24-6.489 16.35-6.489 22.59 0 0 0 102.876 116.638 169.902 181.636h199.324c72.205 0 130.71 67.491 130.71 140.713v497.158c0 73.218-57.227 132.581-127.809 132.581zM958.162 220.515c0-36.604-30.705-75.013-66.806-75.013h-196.017c-23.744 0-45.089-24.417-45.089-24.417l-137.637-142.755-137.605 142.755c0 0-26.213 24.417-48.676 24.417h-196.017c-36.102 0-66.805 38.411-66.805 75.013v497.158c0 36.618 28.614 66.292 63.903 66.292h766.846c35.291 0 63.905-29.676 63.905-66.292v-497.158z"  horiz-adv-x="1024" />

    
    <glyph glyph-name="taoxin" unicode="&#58888;" d="M747.52 871.424c14.336 0 30.72 0 47.104-2.048 100.352-10.24 217.088-102.4 231.424-278.528v-59.392c-12.288-167.936-141.312-376.832-512-636.928C141.312 156.67200000000003 12.288 365.568 0 533.504v59.392c14.336 174.08 131.072 266.24 231.424 276.48 16.384 2.048 32.768 2.048 47.104 2.048 116.736 0 172.032-49.152 235.52-126.976 61.44 77.824 116.736 126.976 233.472 126.976z"  horiz-adv-x="1026" />

    
    <glyph glyph-name="dianzan" unicode="&#59144;" d="M201.219053 499.519349c-23.451884-1.251435-57.828791-1.777037-110.201328-1.777037-35.728457 0-56.139355-24.277831-56.139354-56.890215S34.778256-43.27787999999998 34.778256-76.666154s10.912509-50.945901 50.532928-50.945901L201.219053-127.699656zM876.918633 526.18742c-15.179901 0-235.269699-0.0876-293.836836 0-10.787366 0-6.645118 7.333407 13.152577 56.890215 16.994481 42.548775 26.8683 71.995031 28.069678 113.767917C626.944578 787.511986 580.403727 897.951087 512.037857 895.97382c-118.09788-3.554074-104.4197-78.464947-124.642883-166.240568-17.782885-77.163455-45.41456-161.022086-99.889507-203.545832-15.017215-6.006886-22.075306-10.887481-28.707909-14.791957V-127.699656l529.569565-0.300344c4.580251 0 33.363246 2.502869 51.609162 13.502979 31.661295 19.272092 36.954863 43.387236 36.954863 43.387236l112.266195 483.50426c-0.250287 39.632933-28.01962 113.792945-112.27871 113.792945z"  horiz-adv-x="1024" />

    
    <glyph glyph-name="zuzhi" unicode="&#58906;" d="M1094.643 175.788h-83.401v200.618c0.001 0.059 0.001 0.127 0.001 0.196 0 11.308-9.093 20.492-20.367 20.637h-0.598l-355.932 0.519v89.373h182.9c18.803 0.256 33.946 15.558 33.946 34.396 0 0.115-0.001 0.231-0.002 0.345v249.278c0.001 0.098 0.002 0.213 0.002 0.327 0 18.838-15.143 34.14-33.923 34.396h-416.577c-18.802-0.256-33.946-15.558-33.946-34.396 0-0.115 0.001-0.231 0.002-0.345v-249.278c-0.001-0.097-0.002-0.213-0.002-0.327 0-18.838 15.143-34.14 33.922-34.396h182.923v-89.307l-355.868 0.455c-11.279-0.11-20.381-9.278-20.381-20.573 0-0.068 0-0.138 0.001-0.205v-10.245c-0.014-0.211-0.022-0.457-0.022-0.705 0-0.645 0.055-1.278 0.162-1.892l-0.008-188.87h-83.401c-18.803-0.256-33.946-15.558-33.946-34.396 0-0.092 0-0.185 0.001-0.277v-144.267c-0.001-0.098-0.002-0.213-0.002-0.327 0-18.838 15.143-34.14 33.922-34.396h217.582c18.803 0.256 33.946 15.558 33.946 34.396 0 0.115-0.001 0.231-0.002 0.345v144.199c0.001 0.097 0.002 0.213 0.002 0.327 0 18.838-15.143 34.14-33.922 34.396h-83.426v170.568l325.363-0.455v-170.113h-83.401c-18.802-0.256-33.946-15.558-33.946-34.396 0-0.115 0.001-0.231 0.002-0.345v-144.199c-0.001-0.097-0.002-0.213-0.002-0.327 0-18.838 15.143-34.14 33.922-34.396h217.582c18.803 0.256 33.946 15.558 33.946 34.396 0 0.115-0.001 0.231-0.002 0.345v144.199c0.001 0.097 0.002 0.213 0.002 0.327 0 18.838-15.143 34.14-33.923 34.396h-83.426v170.048l326.142-0.455v-169.594h-83.401c-18.802-0.256-33.946-15.558-33.946-34.396 0-0.115 0.001-0.231 0.002-0.345v-144.199c-0.001-0.097-0.002-0.213-0.002-0.327 0-18.838 15.143-34.14 33.923-34.396h217.582c18.803 0.256 33.946 15.558 33.946 34.396 0 0.115-0.001 0.231-0.002 0.345v144.199c0.001 0.097 0.002 0.213 0.002 0.327 0 18.838-15.143 34.14-33.923 34.396z"  horiz-adv-x="1260" />

    
    <glyph glyph-name="tuichufffpx" unicode="&#58925;" d="M718.2-36.4zM94.8-36.4zM920.1 832zM491.5-64C272.4-64 94.8 113.6 94.8 332.7c0 165.8 101.8 307.9 246.2 367.1v-0.1c4.3 1.5 8.9 2.3 13.7 2.3 22.6 0 41.1-18.4 41.1-41 0-17.8-11.4-33.1-27.4-38.7-112.5-47.9-191.5-159.5-191.5-289.6 0-173.8 140.8-314.6 314.6-314.6S806.1 159 806.1 332.7c0 130-78.9 241.7-191.5 289.6-16 5.6-27.3 20.9-27.3 38.7 0 22.7 18.3 41 41 41 4.8 0 9.3-0.8 13.7-2.3v0.1c144.5-59.3 246.2-201.3 246.2-367.1 0-219.1-177.6-396.7-396.7-396.7z m0 424c-22.6 0-41 18.4-41 41.1V770.5c0 22.6 18.4 41 41 41 22.7 0 41-18.4 41-41V401.2c0-22.8-18.3-41.2-41-41.2z"  horiz-adv-x="1024" />

    
    <glyph glyph-name="weibo" unicode="&#58977;" d="M952.832 722.944C855.04 817.152 711.168 803.84 711.168 803.84c-17.92-0.512-31.744-14.848-31.744-32.768v-15.872c0-17.92 14.336-31.232 32.256-31.232 0 0 137.728 14.848 196.608-71.168 58.88-85.504 33.28-193.024 33.28-193.024-2.56-17.408 9.728-31.744 27.648-31.744h13.824c17.92 0 34.304 14.336 36.352 31.744-0.512 0.512 31.232 169.472-66.56 263.168zM853.504 625.664c-53.248 48.64-122.88 31.232-122.88 31.232-11.776-1.536-20.992-12.8-20.992-24.576v-8.192c0-11.776 9.728-20.48 21.504-20.48 0 0 58.368 8.192 87.04-26.624 28.672-34.304 6.144-90.112 6.144-90.112-3.584-11.264 3.584-20.48 15.36-20.48h19.456c11.776 0 23.552 9.216 25.088 20.992-0.512 0.512 22.528 89.6-30.72 138.24zM585.728 265.216c-15.872 81.408-106.496 132.096-202.752 113.664-96.256-18.432-161.28-99.84-145.408-181.248 15.872-81.408 106.496-132.096 202.752-113.664 96.256 18.944 161.28 99.84 145.408 181.248z m-210.432-100.352c-29.696-13.824-61.952-6.656-72.704 15.872-10.752 22.528 5.12 51.712 34.304 65.536s61.952 6.656 72.704-15.872c10.752-22.016-4.608-51.712-34.304-65.536z m67.584 68.608c-16.384 0-29.696 13.312-29.696 30.208 0 16.384 13.312 30.208 29.696 30.208s29.696-13.312 29.696-30.208c0-16.896-13.312-30.208-29.696-30.208zM741.376 412.16c0 9.216 86.016 90.112 0 140.8-86.016 51.2-243.2-26.112-238.592-17.92 67.584 118.272-29.184 155.648-78.336 155.648C307.2 690.688 0 429.056 0 263.168s204.8-300.032 457.728-300.032c252.928 0 455.68 134.144 455.68 300.032 0.512 140.288-172.032 140.288-172.032 148.992z m-271.36-356.864c-161.792-22.528-304.64 45.568-319.488 152.064-14.848 106.496 103.936 211.456 265.216 233.984 161.792 22.528 304.64-45.568 319.488-152.064 15.36-106.496-103.424-211.456-265.216-233.984z"  horiz-adv-x="1024" />

    
    <glyph glyph-name="biaoqian" unicode="&#59014;" d="M1005.055436 298.48979099999997l-28.044278 29.421654 0.02258 0.02258-39.289085 41.208379L458.327497 871.907211l-21.947696 23.031533-31.250628-5.915943L164.269019 843.456494l-7.632018-0.451599L116.1286 840.566262 104.206395 801.773936l-74.98796-244.089085-8.648115-28.134598 17.431709-23.708931 430.17032-584.955766 34.795678-47.327541 47.192062 34.998897 47.124322 34.953738 19.396163-20.34452 42.359956 40.711621 45.408247 43.647012 72.029989 69.252657 113.080309 84.923131 46.311444 34.773098-14.880176 20.231621 42.540595 41.389019L1005.055436 298.48979099999997 1005.055436 298.48979099999997zM834.870474 235.10791600000005l19.576803-26.621742-115.92538-87.068225 0 0-29.105535-21.857376 0.15806 0.09032-143.676119-106.599868-50.579052-37.52785L85.148931 540.501521l74.98796 244.089085L419.309372 800.057861 830.941566 240.45936099999994l-0.180639-0.13548L834.870474 235.10791600000005 834.870474 235.10791600000005zM856.366571 235.49177499999996l-1.196736 1.648335 0 0-10.09323 13.7286L433.44441 810.467211l-5.644983 7.699757-9.528732-0.564498-111.048115-6.615921 108.767541 20.57032 479.394576-502.764807-0.15806-0.15806 4.719206-4.651466 22.805733-23.91215L856.366571 235.49177499999996 856.366571 235.49177499999996zM332.625006 685.103418c-13.435061 9.077133-29.692613 14.405998-47.101742 14.383418-11.606086 0-22.715413-2.348313-32.786064-6.615921-15.128556-6.390121-27.976538-17.07043-37.053671-30.505491-9.077133-13.435061-14.383418-29.692613-14.383418-47.101742 0-11.606086 2.348313-22.715413 6.615921-32.786064 6.412701-15.128556 17.07043-27.976538 30.505491-37.053671 13.435061-9.077133 29.692613-14.405998 47.101742-14.383418 11.606086 0 22.715413 2.348313 32.786064 6.615921 15.128556 6.412701 27.976538 17.07043 37.053671 30.505491 9.077133 13.435061 14.405998 29.692613 14.383418 47.101742 0 11.606086-2.348313 22.715413-6.615921 32.786064C356.740375 663.178302 346.060066 676.026284 332.625006 685.103418L332.625006 685.103418zM346.985843 589.2967590000001c-5.057905-11.967365-13.52538-22.150915-24.183109-29.353914-10.657729-7.180419-23.437971-11.380287-37.279471-11.380287-9.235193 0-17.973627 1.874135-25.966924 5.238545-11.967365 5.057905-22.150915 13.52538-29.353914 24.183109-7.180419 10.657729-11.380287 23.437971-11.380287 37.279471 0 9.235193 1.874135 17.973627 5.238545 25.966924 5.057905 11.967365 13.52538 22.150915 24.160529 29.353914 10.657729 7.180419 23.437971 11.380287 37.279471 11.380287 9.235193 0 17.973627-1.874135 25.966924-5.238545 11.967365-5.057905 22.150915-13.52538 29.353914-24.183109 7.180419-10.657729 11.380287-23.437971 11.380287-37.279471C352.224388 606.0284899999999 350.350254 597.267475 346.985843 589.2967590000001L346.985843 589.2967590000001z"  horiz-adv-x="1024" />

    
    <glyph glyph-name="qunzu" unicode="&#59030;" d="M583.220546 325.92864999999995c-65.694814 0-127.501149 25.582093-174.060558 72.039173-46.45708 46.45708-72.039173 108.263416-72.039173 174.060557 0 65.694814 25.582093 127.501149 72.039173 174.060558 46.45708 46.45708 108.263416 72.039173 174.060558 72.039172s127.501149-25.582093 174.060557-72.039172c46.45708-46.45708 72.039173-108.263416 72.039173-174.060558 0-65.694814-25.582093-127.501149-72.039173-174.060557-46.559408-46.45708-108.365744-72.039173-174.060557-72.039173z m0 432.849006c-102.94234 0-186.749276-83.806935-186.749276-186.749276s83.806935-186.749276 186.749276-186.749275 186.749276 83.806935 186.749275 186.749275-83.806935 186.749276-186.749275 186.749276zM959.891276-50.02578200000005c-16.372539 0-29.675227 13.302688-29.675227 29.675227 0 191.354052-155.641451 346.995503-346.995503 346.995504S236.225042 171.00349800000004 236.225042-20.350554999999986c0-16.372539-13.302688-29.675227-29.675227-29.675227s-29.675227 13.302688-29.675227 29.675227c0 54.848006 10.744479 108.058759 31.926451 158.199661 20.465674 48.401319 49.731588 91.890876 87.081443 129.138403 37.349855 37.349855 80.737084 66.615769 129.138403 87.081443 50.140901 21.181973 103.351654 31.926451 158.199661 31.926451s108.058759-10.744479 158.19966-31.926451c48.401319-20.465674 91.890876-49.731588 129.138403-87.081443 37.349855-37.349855 66.615769-80.737084 87.081443-129.138403 21.181973-50.140901 31.926451-103.351654 31.926451-158.199661 0-16.372539-13.302688-29.675227-29.675227-29.675227zM300.077945 353.14799600000003c-108.570401 0-196.777456 88.309383-196.777455 196.777456s88.309383 196.777456 196.777455 196.777456c16.372539 0 29.675227-13.302688 29.675228-29.675227s-13.302688-29.675227-29.675228-29.675228c-75.825322 0-137.427001-61.704007-137.427001-137.427001s61.704007-137.427001 137.427001-137.427001c16.372539 0 29.675227-13.302688 29.675228-29.675227 0-16.474868-13.20036-29.675227-29.675228-29.675228zM64.108724 120.24862599999994c-16.372539 0-29.675227 13.302688-29.675227 29.675227 0 70.094934 27.321675 135.994404 76.848606 185.623664 49.526931 49.526931 115.52873 76.848606 185.623663 76.848606 16.372539 0 29.675227-13.302688 29.675227-29.675228s-13.302688-29.675227-29.675227-29.675227c-112.049565 0-203.121815-91.174578-203.121815-203.121815 0-16.372539-13.302688-29.675227-29.675227-29.675227z"  horiz-adv-x="1024" />

    
    <glyph glyph-name="tuijian1" unicode="&#58920;" d="M929.67 553.809l-0.016 0.017c-17.404 27.987-47.747 45.954-79.222 46.894l-213.35 1.012 2.656 7.747c13.468 38.874 20.292 79.412 20.292 120.515 0 20.879-1.862 41.761-5.664 63.844l-3.754 16.197c-10.326 44.756-49.586 76.016-95.505 76.016-54.087 0-98.093-44.027-98.093-98.15 0-3.079 0.116-6.128 0.396-8.635-2.939-107.589-128.546-213.221-172.732-213.221l-152.592-0.069c-16.711 0-30.292-13.599-30.292-30.351l-0.375-426.847c0-16.422 14.53-29.212 33.79-29.761l132.074 0.268 5.148-0.863 3.562 0.499 504.108-0.132c16.445 1.164 32.645 6.442 46.457 15.242 14.511 9.315 27.04 22.767 32.67 35.056l6.501 10.844c34.719 82.861 77.51 341.391 77.922 343.955l0.617 9.674c1.637 21.481-3.402 42.293-14.594 60.246zM245.755 128.91999999999996l-94.305-0.315 0.324 387.094 93.982 0.132v-386.912zM894.452 492.765l-0.236-1.571c-7.285-43.133-45.143-261.647-73.055-328.895l-0.45-0.882-3.891-6.176c-3.671-7.49-9.724-14.281-17.21-19.082-6.51-4.15-14.434-6.906-21.187-7.387l-482.681 0.182v389.102l4.718 0.928c79.339 15.453 203.578 139.333 206.913 262.788l-0.365 5.793c-0.007 26.899 21.569 48.509 48.103 48.509 22.514 0 41.764-15.333 46.841-37.294l3.444-14.654c3.118-18.215 4.649-36.266 4.649-54.014 0-35.75-5.969-70.985-17.774-104.707l-25.661-73.57 272.65-0.059 7.259-0.715c16.494-0.588 31.866-9.466 40.72-23.695 5.748-9.25 7.966-19.927 7.217-34.608z"  horiz-adv-x="1024" />

    
    <glyph glyph-name="shangchuan" unicode="&#59045;" d="M375.3 605.5c-41.1 34.7-99.9 38.9-145.6 10.6-43.7-27-67.8-76.9-61.7-127.8 0 0-166-31.6-166-197.2 3.7-165.4 180.4-166.9 180.4-166.9h278.7v173h-87.6L521 452l147.5-154.8h-87.6v-173h252.7s165.1 0 188.3 157.1c5.6 98.8-62.4 186.7-159.5 206 0 0 19.5 254.7-219.8 283.7-116.8 13.1-227.2-55.3-267.3-165.5z"  horiz-adv-x="1024" />

    
    <glyph glyph-name="shijian" unicode="&#58912;" d="M977.408 380.41600000000005c0.512-253.952-205.312-460.288-459.776-460.8-253.952-0.512-460.288 205.312-460.8 459.776-0.512 254.464 205.312 460.288 459.776 460.8 253.952 0.512 460.288-205.312 460.8-459.776z m-48.128-0.512c1.024 226.304-182.272 410.112-411.136 412.16-225.792 2.048-412.16-183.296-412.672-411.648-1.024-226.304 182.784-410.112 411.136-412.16 225.28-2.048 411.648 183.296 412.672 411.648zM516.096 354.304c-14.336 0-25.6 11.776-25.6 25.6V649.7280000000001c0 13.824 11.264 25.6 25.6 25.6s25.6-11.264 25.6-25.6v-270.336c0-13.824-11.264-25.088-25.6-25.088zM723.968 354.304h-208.896c-13.824 0-24.576 11.264-24.576 24.576v1.536c0 13.824 11.264 24.576 24.576 24.576h208.896c13.824 0 24.576-11.264 24.576-24.576v-1.536c0.512-13.824-10.752-24.576-24.576-24.576z"  horiz-adv-x="1024" />

    
    <glyph glyph-name="bianji" unicode="&#58885;" d="M1010.065721 789.811741a47.024139 47.024139 0 0 1-66.404228 0l-465.122125-464.756463a46.951007 46.951007 0 1 1 66.47736-66.404228l465.048993 464.756463a46.951007 46.951007 0 0 1 0 66.404228z m-172.299957-498.543636a46.512213 46.512213 0 0 1-46.512213-46.512213v-232.634195a46.512213 46.512213 0 0 0-46.512212-46.512213H139.497517a46.512213 46.512213 0 0 0-46.512213 46.512213V756.463362a46.512213 46.512213 0 0 0 46.512213 46.512213h465.56092a46.512213 46.512213 0 0 1 0 93.024425h-511.926868A93.097557 93.097557 0 0 1 0.034011 802.975575v-837.366091a93.024425 93.024425 0 0 1 93.097558-93.024425h698.268247a93.024425 93.024425 0 0 1 93.097558 93.024425V244.97528899999998a46.585345 46.585345 0 0 1-46.73161 46.292816z"  horiz-adv-x="1024" />

    
    <glyph glyph-name="tongzhi" unicode="&#58950;" d="M512-128c56.321146 0 102.402548 46.076295 102.402548 102.397441H409.597452c0-56.316039 46.081402-102.397441 102.402548-102.397441z m332.799345 307.197431v281.605732c0 157.181349-109.057105 288.770999-255.99871 323.586128v34.810023A76.7036 76.7036 0 0 1 512 895.999949h-0.107249c-42.358323 0-76.698492-34.345276-76.698493-76.7036v-34.912165c-146.946712-34.810023-255.99871-166.40478-255.99871-323.586129v-281.605731l-102.402549-102.402548v-51.198721h870.414002v51.198721l-102.407656 102.407655z"  horiz-adv-x="1024" />

    
    <glyph glyph-name="zuanshi" unicode="&#59090;" d="M305.738309 733.435531l171.038468 0-146.32767-198.828394L138.099265 534.6071360000001 305.738309 733.435531zM696.464245 499.322515l188.818413 0L560.462758 113.59542999999996 696.464245 499.322515zM374.262986 534.6071360000001l137.40751 186.704263 137.418766-186.704263L374.262986 534.6071360000001zM659.055241 499.322515L511.670495 81.32956300000001 364.3011 499.322515 659.055241 499.322515zM326.882885 499.322515l136.000464-385.727085L138.067542 499.322515 326.882885 499.322515zM885.247866 534.6071360000001L692.901093 534.6071360000001l-146.338926 198.828394 171.057911 0L885.247866 534.6071360000001zM936.688445 528.336316l-197.379393 234.111992c-3.348258 3.976568-8.28264 6.27082-13.487176 6.27082L297.538557 768.719128c-5.201465 0-10.135848-2.294252-13.489222-6.27082L86.658685 528.336316c-4.423753-5.244444-5.406127-12.582573-2.512217-18.807345 0.669242-1.431605 1.554402-2.719948 2.542916-3.891633l-0.038886-0.035816 425.018973-504.719176 425.023066 504.719176-0.039909 0.035816c0.991584 1.171686 1.874697 2.460028 2.542916 3.891633C942.091502 515.753743 941.112198 523.092895 936.688445 528.336316z"  horiz-adv-x="1024" />

    
    <glyph glyph-name="guanbi4" unicode="&#58896;" d="M559.786667 418.133333L979.012267 837.495467c13.653333 13.653333 13.653333 34.133333 0 47.786666-13.653333 13.653333-34.133333 13.653333-47.7184 0L512 465.783467 92.637867 885.213867c-13.653333 13.653333-34.133333 13.653333-47.786667 0-13.653333-13.653333-13.653333-34.133333 0-47.7184L464.349867 418.133333 44.919467-1.2287999999999784c-13.653333-13.653333-13.653333-34.133333 0-47.786667 6.826667-6.826667 17.066667-10.24 23.893333-10.24 6.826667 0 16.9984 3.413333 23.825067 10.24L512 367.06986700000004l415.9488-419.362134c6.826667-6.826667 17.066667-10.24 23.893333-10.24 10.24 0 17.066667 3.413333 23.893334 10.24 13.653333 13.653333 13.653333 34.133333 0 47.7184L559.650133 418.133333z"  horiz-adv-x="1024" />

    
    <glyph glyph-name="yingyong1" unicode="&#58903;" d="M321.797665 855.308569H120.761554a120.761275 120.761275 0 0 1-120.761275-120.993955v-201.501472c0-66.779356 40.9518-122.855401 107.498476-122.855401h214.996952a124.484166 124.484166 0 0 1 122.855401 122.855401V732.453168a125.182208 125.182208 0 0 1-123.786124 122.622721z m77.715348-322.495427s-17.916413-76.784626-76.784625-76.784626H107.731436c-23.268068 0-61.4277 54.679961-61.427701 76.784626V732.453168a71.898331 71.898331 0 0 0 76.784626 76.784626h199.640027a69.804205 69.804205 0 0 0 76.784625-76.784626z m-77.715348-215.229633H120.761554a120.761275 120.761275 0 0 1-120.761275-120.993955v-201.501472c0-66.779356 40.9518-122.855401 107.498476-122.855401h214.996952a124.484166 124.484166 0 0 1 122.855401 122.855401v199.640026a125.182208 125.182208 0 0 1-123.786124 122.622721z m77.715348-322.495427s-17.916413-76.784626-76.784625-76.784626H107.731436c-23.268068 0-61.4277 54.679961-61.427701 76.784626v199.640026a71.898331 71.898331 0 0 0 76.784626 76.784626h199.640027a69.804205 69.804205 0 0 0 76.784625-76.784626z m459.777031 322.262747h-200.80343a120.761275 120.761275 0 0 1-120.761275-120.993956v-201.501472c0-66.779356 40.9518-122.855401 107.498476-122.855401h214.996952a124.484166 124.484166 0 0 1 122.855401 122.855401v199.872707a125.182208 125.182208 0 0 1-123.786124 122.622721z m77.715349-322.495428s-17.916413-76.784626-76.784626-76.784626h-215.694994c-23.268068 0-61.4277 54.679961-61.4277 76.784626v199.872707a71.898331 71.898331 0 0 0 76.784625 76.784626h199.640027a69.804205 69.804205 0 0 0 76.784626-76.784626v-199.872707z m51.422431 724.567649L847.423329 860.892906a124.949527 124.949527 0 0 1-174.277832 0l-142.167897-142.167898a120.993956 120.993956 0 0 1 0-170.787622l142.400578-142.633259c46.536137-46.536137 116.340342-57.93749 162.876479-10.935992l152.173167 152.173167a124.484166 124.484166 0 0 1 0.23268 173.114429z m-32.575296-141.237175l-152.173167-152.173167c-15.589606-15.589606-82.136281-4.886294-97.725887 10.935992l-141.237175 141.237175a71.898331 71.898331 0 0 0 0 108.661879l141.237175 141.237175a69.804205 69.804205 0 0 0 108.661879 0l141.237175-141.237175s41.649842-67.012037 0-108.661879z"  horiz-adv-x="1024" />

    
    <glyph glyph-name="youxi" unicode="&#58937;" d="M204.896 32.89599999999996c-3.456 0-6.912 0.128-10.4 0.416-107.776 8.832-179.584 169.792-163.488 366.4C47.36 599.648 141.024 744.256 249.44 734.944c48.384-3.968 81.92-42.912 105.76-76.416 10.24-14.4 6.88-34.368-7.52-44.64-14.432-10.24-34.368-6.816-44.64 7.552-23.456 32.96-41.6 48.288-58.816 49.728-59.008 4.256-135.584-107.584-149.408-276.672-13.824-169.056 44.192-292.384 104.928-297.344 52.96-4.96 105.024 61.152 132.192 166.848 3.616 14.112 16.352 24 30.976 24h299.904c14.432 0 27.072-9.664 30.88-23.552C722.848 157.76 774.912 92.096 829.024 97.60000000000002c29.408 2.976 57.28 33.632 76.448 84.096 22.208 58.592 30.016 135.04 21.888 215.232s-31.072 153.536-64.64 206.56c-28.928 45.696-62.016 70.592-91.744 67.2-18.336-1.888-39.616-19.2-59.808-48.736A31.958 31.958 0 0 0 684.736 608H448c-17.664 0-32 14.336-32 32s14.336 32 32 32h220.48c29.28 37.92 61.568 58.848 96.064 62.336C871.872 745.28 971.136 599.744 991.04 403.328c9.088-89.888-0.032-176.672-25.76-244.384-28.512-75.072-74.592-119.456-129.824-125.056-81.76-8.352-156.128 63.968-196.544 190.08H387.104c-36.48-119.52-104.512-191.072-182.208-191.072zM320 448h-32v32c0 17.664-14.336 32-32 32s-32-14.336-32-32v-32h-32c-17.664 0-32-14.336-32-32s14.336-32 32-32h32v-32c0-17.696 14.336-32 32-32s32 14.304 32 32v32h32c17.664 0 32 14.336 32 32s-14.336 32-32 32z m416 64a64 64 0 1 1 128 0 64 64 0 1 1-128 0zM608 384a64 64 0 1 1 128 0 64 64 0 1 1-128 0z"  horiz-adv-x="1024" />

    
    <glyph glyph-name="guanzhu" unicode="&#58946;" d="M972.8 332.79999999999995H563.2v-409.6c0-25.6-25.6-51.2-51.2-51.2s-51.2 25.6-51.2 51.2V332.79999999999995H51.2C25.6 332.79999999999995 0 358.4 0 384s25.6 51.2 51.2 51.2h409.6V844.8c0 25.6 25.6 51.2 51.2 51.2s51.2-25.6 51.2-51.2v-409.6h409.6c25.6 0 51.2-25.6 51.2-51.2s-25.6-51.2-51.2-51.2"  horiz-adv-x="1024" />

    
    <glyph glyph-name="lianjie" unicode="&#58918;" d="M667.927273 342.10909100000003c-12.939636 0-25.879273 1.582545-38.818909 4.654545a29.789091 29.789091 0 0 0 13.870545 57.995637c35.653818-8.564364 72.424727 1.768727 98.304 27.741091l192.232727 192.698181c19.735273 19.735273 30.533818 45.986909 30.533819 73.914182 0 27.927273-10.798545 54.178909-30.533819 73.914182l-31.650909 31.650909a104.261818 104.261818 0 0 1-147.549091 0L562.082909 612.072727a104.261818 104.261818 0 0 1-27.741091-98.117818 29.789091 29.789091 0 1 0-57.809454-13.777454c-13.218909 55.947636 3.072 113.570909 43.566545 154.158545L712.145455 846.941091a163.746909 163.746909 0 0 0 231.703272 0l31.650909-31.744c30.906182-30.999273 47.941818-72.238545 47.941819-116.084364 0-43.845818-17.035636-85.085091-47.941819-116.084363l-192.325818-192.698182c-31.185455-31.278545-72.610909-48.128-115.432727-48.128zM196.328727-127.06909099999996c-43.752727 0-84.992 17.035636-115.898182 48.034909l-31.650909 31.650909a164.584727 164.584727 0 0 0 0 232.261818L241.105455 377.48363600000005a162.629818 162.629818 0 0 0 154.158545 43.473455 29.789091 29.789091 0 0 0-13.870545-57.902546 103.610182 103.610182 0 0 1-98.21091-27.74109L90.856727 142.70836399999996a104.913455 104.913455 0 0 1 0-147.921455l31.650909-31.650909c19.735273-19.735273 45.893818-30.626909 73.821091-30.626909 27.834182 0 53.992727 10.891636 73.728 30.72l192.232728 192.605091a104.261818 104.261818 0 0 1 27.74109 98.210909 29.789091 29.789091 0 1 0 57.902546 13.684364c13.218909-55.854545-3.072-113.477818-43.566546-154.065455l-192.232727-192.698182a162.536727 162.536727 0 0 0-115.805091-48.034909zM315.671273 155.182545a29.789091 29.789091 0 0 0-21.038546 50.827637L687.662545 599.970909a29.789091 29.789091 0 0 0 42.077091-42.170182l-393.029818-393.774545a29.602909 29.602909 0 0 0-21.038545-8.750546z"  horiz-adv-x="1024" />

    
    <glyph glyph-name="you1" unicode="&#58933;" d="M774.656 406.43l-479.122 479.157c-13.943 13.907-36.48 13.907-50.422 0-13.943-13.943-13.943-36.515 0-50.458l455.73-455.765-448.205-448.241c-13.551-13.516-13.551-35.446 0-48.961 13.515-13.586 35.446-13.586 48.995 0l465.5 465.464c1.819 1.819 2.71 4.03 4.03 6.133 1.105 0.82 2.461 1.248 3.495 2.282 13.907 13.907 13.907 36.48 0 50.387z"  horiz-adv-x="1024" />

    
    <glyph glyph-name="cha" unicode="&#58983;" d="M560.097 384l327.791 327.792c13.779 13.767 13.779 36.111 0 49.878-13.779 13.778-36.1 13.778-49.878 0L510.218 433.878 182.427 761.67c-13.779 13.778-36.1 13.778-49.878 0-13.779-13.768-13.779-36.112 0-49.878L460.34 384 132.55 56.20799999999997c-13.779-13.767-13.779-36.111 0-49.878 6.889-6.888 15.914-10.334 24.939-10.334s18.05 3.445 24.939 10.334l327.791 327.792L838.01 6.330000000000041c6.889-6.888 15.914-10.334 24.939-10.334s18.05 3.445 24.939 10.334c13.779 13.767 13.779 36.112 0 49.878L560.098 384z"  horiz-adv-x="1024" />

    
    <glyph glyph-name="gongwenbao" unicode="&#58913;" d="M896 736H704v64c0 35.359791-28.640209 64-64 64h-256c-35.359791 0-64-28.672-64-64v-64H128c-70.687791 0-128-57.312209-128-128v-576c0-70.687791 57.312209-128 128-128h768c70.687791 0 128 57.312209 128 128v576c0 70.687791-57.312209 128-128 128zM384 768c0 17.664 14.336 32 32 32h192c17.664 0 32-14.336 32-32v-32h-256V768z m576-736c0-35.328-28.640209-64-64-64h-768c-35.359791 0-64 28.672-64 64V384h324.512627c-2.655373-10.303582-4.512627-20.894954-4.512627-32 0-70.687791 57.312209-128 128-128s128 57.312209 128 128c0 11.105046-1.855582 21.728209-4.510954 32H960v-352z m-512 320c0 11.712418 3.391582 22.559791 8.864627 32h110.240628c5.503163-9.440209 8.894745-20.287582 8.894745-32 0-35.359791-28.672-64-64-64-35.359791 0-64 28.640209-64 64z m512 96H64v160c0 35.359791 28.640209 64 64 64h768c35.359791 0 64-28.640209 64-64v-160z"  horiz-adv-x="1024" />

    
    <glyph glyph-name="gouxuan" unicode="&#58911;" d="M896 896H128C57.6 896 0 838.4 0 768v-768c0-70.4 57.6-128 128-128h768c70.4 0 128 57.6 128 128V768c0 70.4-57.6 128-128 128zM409.6 128L179.2 364.79999999999995 256 441.6l153.6-153.6L761.6 640l76.8-76.8L409.6 128z"  horiz-adv-x="1024" />

    
    <glyph glyph-name="liulan1" unicode="&#59383;" d="M373.082647 383.065212c0-18.33503 3.647354-36.668768 10.664081-53.608727a140.456081 140.456081 0 0 1 30.370909-45.454222 140.505212 140.505212 0 0 1 45.450344-30.367031 140.463838 140.463838 0 0 1 53.612606-10.661495c18.336323 0 36.670061 3.640889 53.61002 10.661495a140.541414 140.541414 0 0 1 45.454222 30.367031 140.538828 140.538828 0 0 1 30.365737 45.454222 140.480646 140.480646 0 0 1 10.66796 53.608727c0 18.342788-3.647354 36.675232-10.66796 53.613899a140.492283 140.492283 0 0 1-30.365737 45.451636 140.503919 140.503919 0 0 1-45.454222 30.37091 140.50004 140.50004 0 0 1-53.61002 10.661495 140.51297 140.51297 0 0 1-53.612606-10.661495 140.432808 140.432808 0 0 1-45.450344-30.37091 140.390141 140.390141 0 0 1-30.370909-45.451636 140.532364 140.532364 0 0 1-10.664081-53.613899m0 0zM1017.309233 416.916687s-0.581818 13.34303-124.088889 128.784808c-176.54303 152.669091-333.905455 174.586828-450.949171 160.103434-117.043717-14.484687-205.119354-77.505939-212.163233-81.423515-55.586909-30.925576-140.13802-113.515313-168.323879-142.877737-28.179394-29.35596-44.233697-41.885737-53.624242-61.066344-22.314667-45.798141 8.220444-91.596283 8.220444-91.596282l77.892526-78.292041s175.374222-193.988525 405.542788-193.988525 339.386182 98.870303 385.57608 134.878384c46.189899 36.014545 102.944323 101.388929 131.917576 140.13802 20.358465 43.454061 0 85.339798 0 85.339798M513.179294 147.847758c-129.909657 0-235.223919 105.311677-235.223919 235.217454 0 129.912242 105.31297 235.223919 235.223919 235.223919 129.907071 0 235.217455-105.311677 235.217454-235.223919 0.001293-129.905778-105.309091-235.217455-235.217454-235.217454m0 0z"  horiz-adv-x="1026" />

    
    <glyph glyph-name="taoxin1" unicode="&#58905;" d="M545.059-9.344000000000051l-9.728 7.68-11.264 6.144-17.92 11.776c-87.04 56.832-168.448 126.464-235.008 200.704-28.672 32.256-55.808 68.608-73.216 92.672-82.944 112.64-96.256 251.904-33.28 353.792 43.008 70.144 113.152 113.152 191.488 117.248 89.6 5.12 150.528-29.696 186.88-63.488l5.12 5.632 2.048-3.072c36.352 32.768 95.744 65.536 183.808 60.928 78.336-4.608 147.968-47.104 191.488-117.76 62.976-101.888 49.664-241.152-33.28-354.816-19.456-26.624-45.056-60.928-73.216-92.672-66.048-73.728-147.456-143.36-234.496-200.704l-39.424-24.064zM623.395 592.256z"  horiz-adv-x="1086" />

    
    <glyph glyph-name="xinfeng" unicode="&#58892;" d="M657.824 371.9l361.297 355.084c-8.236 17.205-25.805 29.09-46.155 29.09H52.408c-20.35 0-37.918-11.885-46.154-29.09L367.551 371.9c80.155-50.533 210.117-50.533 290.273 0zM1.266 656.44v-569.842l300.311 285.65L1.266 656.439z m722.53-284.192l300.312-285.65V656.44L723.796 372.24699999999996z m-47.042-44.518c-90.611-57.504-237.522-57.504-328.133 0l-13.53 12.802L7.048 16.47199999999998c8.532-16.356 25.636-27.529 45.36-27.529h920.558c19.725 0 36.83 11.173 45.361 27.53l-328.043 324.06-13.53-12.804z"  horiz-adv-x="1025" />

    
    <glyph glyph-name="qrcode" unicode="&#58898;" d="M31.680243 896h410.475792c41.739557-4.072103 31.677244-76.516357 31.677244-123.584432v-224.082618c0-48.706312 9.301667-108.394508-23.413094-122.230062-21.308074-9.005805-78.493436-2.713736-106.065592-2.713736h-217.628625C76.414405 423.389152 7.718405 411.550666 0 454.623602V864.766549C5.627379 880.042433 15.519771 891.109278 31.680243 896z m56.476692-92.348982v-291.987986h296.148048V807.72612H89.536292c-1.608251-0.226894-1.499302-2.149998-1.379357-4.075102zM582.65059 896h410.47879c16.743201-6.124147 28.244843-17.418886 31.675245-36.668919v-399.27401c-3.754251-16.59527-12.543157-30.760671-28.923527-35.307553-26.773528-7.432538-71.266802-1.360366-103.307877-1.360366H681.825392c-31.779197 0-78.883255-6.601925-104.681237 1.359367-36.427032 11.234767-26.16981 81.335112-26.16981 130.374269V764.268363c0 56.615627-12.607127 123.822321 31.676245 131.731637z m56.476692-92.348982v-291.987986h296.148048V807.72612H640.501641c-1.602254-0.226894-1.494304-2.149998-1.374359-4.075102z m-415.986226-85.560144c41.247786 7.676424 73.679679-19.800776 74.38535-57.035432 0.92357-49.110124-49.944735-76.086557-89.534293-55.68706-45.292902 23.343126-42.31229 102.031472 15.148943 112.722492z m550.971347 0c97.154743 17.895664 95.290612-133.797674 0-118.150963-60.636754 9.955363-62.594842 106.623333 0 118.150963z m-334.710086-846.089874H33.057601c-16.872141 5.101624-28.265833 15.594736-33.057601 32.596815V313.381396c4.011132 11.964427 13.270818 25.917927 27.545169 29.880081 26.967438 7.480515 71.009922 1.360366 103.312875 1.360366H341.600875c31.147491 0 76.474377 6.850809 104.686235-1.359367 38.165222-11.107826 27.544169-80.0747 27.54417-129.0199V-1.691836999999964c0.001999-52.825393 11.544622-121.588362-34.428963-126.306164zM88.155935 252.27286100000003v-291.994983h296.149048V256.34696299999996H89.536292c-1.608251-0.232892-1.499302-2.149998-1.379357-4.074102z m936.64969 55.677065v-114.080859c-3.210504-38.475078-0.456787-82.838412-1.371361-123.584432H730.037934v66.544002c-27.552166 3.174521-61.068553 0.457787-90.908653 1.362366-3.216502-86.012933-0.457787-177.907127-1.379358-266.189004h-53.717977c-46.188484 9.132746-33.056602 77.465915-33.056602 131.738634v210.501943c0 31.652256-6.501971 79.110149 1.372361 104.573288 9.400621 30.385846 50.143642 25.805979 90.91465 25.805979H842.987319v-180.624861h92.29001c0.914574 59.755165-1.837144 123.131643 1.37336 180.625861 44.411312 2.588794 85.550149 1.950092 88.154936-36.672917zM230.032846 168.07508199999995c44.040485 4.804762 80.442528-36.932796 63.362484-82.853405-23.682968-63.641355-136.908225-39.721497-115.707101 40.74602 5.858271 22.24064 22.792383 38.871893 52.345617 42.106386zM829.213735-128h-99.173802c0.915574 34.86276-1.839143 73.340836 1.379357 105.932654h97.794445v-105.932654z m195.592889 105.934653v-69.264735c-3.829216-19.307006-15.282881-31.096515-33.056601-36.668918h-70.247278c0.915574 34.86376-1.837144 73.340836 1.379358 105.933653h101.924521z m0 0"  horiz-adv-x="1025" />

    
    <glyph glyph-name="dingwei1" unicode="&#58907;" d="M674.051 499.549c0 89.518-72.57 162.086-162.09 162.086-89.518 0-162.086-72.569-162.086-162.086 0-89.521 72.569-162.088 162.086-162.088 89.519 0 162.09 72.567 162.09 162.088z m-288.159 0c0 69.624 56.443 126.069 126.069 126.069S638.03 569.174 638.03 499.549c0-69.626-56.443-126.07-126.069-126.07s-126.069 56.444-126.069 126.07z m414.227 0c0 159.144-129.013 288.155-288.158 288.155-159.143 0-288.157-129.011-288.157-288.155 0-159.145 288.157-504.276 288.157-504.276s288.158 345.131 288.158 504.276zM511.961 751.685c139.252 0 252.137-112.884 252.137-252.135 0-139.253-252.137-450.247-252.137-450.247S259.824 360.29600000000005 259.824 499.549c0 139.252 112.885 252.136 252.137 252.136z m127.375-640.966a2690.456 2690.456 0 0 0-22.977-31.055c76.901-8.857 129.729-27.188 129.729-48.369 0-29.84-104.822-54.031-234.127-54.031-129.303 0-234.125 24.191-234.125 54.031 0 21.181 52.827 39.513 129.727 48.369a2673.247 2673.247 0 0 0-22.977 31.055c-84.969-15.172-142.771-45.046-142.771-79.424 0-49.732 120.95-90.051 270.147-90.051 149.199 0 270.147 40.318 270.147 90.051-0.002 34.378-57.803 64.252-142.773 79.424z"  horiz-adv-x="1024" />

    
    </font>
</defs>
</svg>
